<svg id="Group_8252" data-name="Group 8252" xmlns="http://www.w3.org/2000/svg" width="451" height="376.493" viewBox="0 0 451 376.493">
  <rect id="Rectangle_3434" data-name="Rectangle 3434" width="358.138" height="18.177" transform="translate(0 182.571) rotate(-30.649)" fill="#f2f2f2"/>
  <rect id="Rectangle_3435" data-name="Rectangle 3435" width="358.138" height="18.177" transform="translate(66.966 197.878) rotate(-30.649)" fill="#f2f2f2"/>
  <rect id="Rectangle_3436" data-name="Rectangle 3436" width="358.138" height="18.177" transform="translate(126.279 214.62) rotate(-30.649)" fill="#f2f2f2"/>
  <circle id="Ellipse_2064" data-name="Ellipse 2064" cx="96.465" cy="96.465" r="96.465" transform="translate(104.222 21.089)" fill="#fff"/>
  <path id="Path_8265" data-name="Path 8265" d="M385.341,251.8a97.182,97.182,0,1,1,97.182,97.182A97.292,97.292,0,0,1,385.341,251.8Zm1.435,0a95.747,95.747,0,1,0,95.747-95.747A95.856,95.856,0,0,0,386.776,251.8Z" transform="translate(-281.836 -134.242)" fill="#3f3d56"/>
  <path id="Path_8266" data-name="Path 8266" d="M526.082,313.288h0a17.2,17.2,0,1,1,17.2,17.2,17.2,17.2,0,0,1-17.2-17.2Zm17.2-16.357a16.375,16.375,0,0,0-16.357,16.357h0a16.357,16.357,0,1,0,16.357-16.357Z" transform="translate(-342.591 -195.315)" fill="#3f3d56"/>
  <path id="Path_8267" data-name="Path 8267" d="M498.776,301.5h0a32.714,32.714,0,1,1,32.714,32.714A32.714,32.714,0,0,1,498.776,301.5Zm32.714-31.875A31.875,31.875,0,1,0,563.365,301.5,31.875,31.875,0,0,0,531.49,269.626Z" transform="translate(-330.804 -183.528)" fill="#ccc"/>
  <path id="Path_8268" data-name="Path 8268" d="M444.166,277.927a63.75,63.75,0,1,1,63.75,63.75,63.75,63.75,0,0,1-63.75-63.75Zm63.75-62.912a62.912,62.912,0,1,0,62.912,62.912,62.912,62.912,0,0,0-62.912-62.912Z" transform="translate(-307.23 -159.954)" fill="#ccc"/>
  <circle id="Ellipse_2065" data-name="Ellipse 2065" cx="7.969" cy="7.969" r="7.969" transform="translate(192.718 109.585)" fill="#a2d117"/>
  <circle id="Ellipse_2066" data-name="Ellipse 2066" cx="7.969" cy="7.969" r="7.969" transform="translate(172.167 132.653)" fill="#a2d117"/>
  <circle id="Ellipse_2067" data-name="Ellipse 2067" cx="7.969" cy="7.969" r="7.969" transform="translate(252.343 129.297)" fill="#a2d117"/>
  <circle id="Ellipse_2068" data-name="Ellipse 2068" cx="3.775" cy="3.775" r="3.775" transform="translate(196.912 113.779)" fill="#2f2e41"/>
  <circle id="Ellipse_2069" data-name="Ellipse 2069" cx="3.775" cy="3.775" r="3.775" transform="translate(256.537 133.491)" fill="#2f2e41"/>
  <circle id="Ellipse_2070" data-name="Ellipse 2070" cx="3.775" cy="3.775" r="3.775" transform="translate(176.361 137.266)" fill="#2f2e41"/>
  <circle id="Ellipse_2071" data-name="Ellipse 2071" cx="3.775" cy="3.775" r="3.775" transform="translate(20.759 71.418)" fill="#a2d117"/>
  <path id="Path_8269" data-name="Path 8269" d="M226.916,132.04H61.248V131.2H227.755v43.2h-.839Z" transform="translate(-26.439 -56.637)" fill="#2f2e41"/>
  <path id="Path_8270" data-name="Path 8270" d="M227.2,242.793a10.9,10.9,0,1,1,10.9,10.9,10.9,10.9,0,0,1-10.9-10.9Zm10.9-10.066a10.066,10.066,0,1,0,10.066,10.066A10.066,10.066,0,0,0,238.1,232.727Z" transform="translate(-213.57 -167.6)" fill="#2f2e41"/>
  <circle id="Ellipse_2072" data-name="Ellipse 2072" cx="3.775" cy="3.775" r="3.775" transform="translate(45.924 180.046)" fill="#a2d117"/>
  <path id="Path_8271" data-name="Path 8271" d="M271.478,433.93h0a10.9,10.9,0,1,1,10.9,10.9A10.9,10.9,0,0,1,271.478,433.93Zm10.9-10.066a10.066,10.066,0,1,0,10.066,10.066A10.066,10.066,0,0,0,282.383,423.864Z" transform="translate(-232.684 -250.11)" fill="#2f2e41"/>
  <circle id="Ellipse_2073" data-name="Ellipse 2073" cx="3.775" cy="3.775" r="3.775" transform="translate(373.553 89.034)" fill="#a2d117"/>
  <path id="Path_8272" data-name="Path 8272" d="M847.963,273.788a10.9,10.9,0,1,1,10.9,10.9A10.9,10.9,0,0,1,847.963,273.788Zm10.9-10.066A10.077,10.077,0,0,0,848.8,273.788h0a10.066,10.066,0,1,0,10.066-10.066Z" transform="translate(-481.54 -180.98)" fill="#2f2e41"/>
  <path id="Path_8273" data-name="Path 8273" d="M457.3,164.249l106.944-1.684.013.838-106.118,1.671v42.367H457.3Z" transform="translate(-197.404 -70.176)" fill="#2f2e41"/>
  <path id="Path_8274" data-name="Path 8274" d="M105.9,290.531H225.429v-42.36h.839v43.2H105.9Z" transform="translate(-45.713 -107.13)" fill="#2f2e41"/>
  <rect id="Rectangle_3437" data-name="Rectangle 3437" width="46.135" height="2.936" transform="translate(1.466 94.906)" fill="#ccc"/>
  <rect id="Rectangle_3438" data-name="Rectangle 3438" width="46.135" height="2.936" transform="translate(1.466 103.293)" fill="#ccc"/>
  <rect id="Rectangle_3439" data-name="Rectangle 3439" width="46.135" height="2.936" transform="translate(1.466 111.682)" fill="#ccc"/>
  <rect id="Rectangle_3440" data-name="Rectangle 3440" width="46.135" height="2.936" transform="translate(26.631 203.533)" fill="#ccc"/>
  <rect id="Rectangle_3441" data-name="Rectangle 3441" width="46.135" height="2.936" transform="translate(26.631 211.921)" fill="#ccc"/>
  <rect id="Rectangle_3442" data-name="Rectangle 3442" width="46.135" height="2.936" transform="translate(26.631 220.309)" fill="#ccc"/>
  <rect id="Rectangle_3443" data-name="Rectangle 3443" width="46.135" height="2.936" transform="translate(354.26 112.94)" fill="#ccc"/>
  <rect id="Rectangle_3444" data-name="Rectangle 3444" width="46.135" height="2.936" transform="translate(354.26 121.328)" fill="#ccc"/>
  <rect id="Rectangle_3445" data-name="Rectangle 3445" width="46.135" height="2.936" transform="translate(354.26 129.716)" fill="#ccc"/>
  <path id="Path_8275" data-name="Path 8275" d="M728.941,619.639l-6.561,2.345-12.167-24.191,9.684-3.461Z" transform="translate(-306.583 -256.56)" fill="#ffb8b8"/>
  <path id="Path_8276" data-name="Path 8276" d="M915.644,768.87l-.1-.268a8.755,8.755,0,0,1,5.292-11.177l12.921-4.618,3.039,8.5Z" transform="translate(-510.495 -392.469)" fill="#2f2e41"/>
  <path id="Path_8277" data-name="Path 8277" d="M660.285,629.866h-6.968L650,602.991h10.283Z" transform="translate(-280.591 -260.298)" fill="#ffb8b8"/>
  <path id="Path_8278" data-name="Path 8278" d="M857.375,774.074H834.909v-.284a8.744,8.744,0,0,1,8.745-8.744h13.722Z" transform="translate(-475.905 -397.751)" fill="#2f2e41"/>
  <path id="Path_8279" data-name="Path 8279" d="M887.6,462.39l-3.03-5.987s-11.288,2.828-12.315,9.371Z" transform="translate(-492.025 -264.518)" fill="#a2d117"/>
  <path id="Path_8280" data-name="Path 8280" d="M685.118,467.772l-8.241,45.985,21.88,38.7-13.071,5.115-22.165-37.509-2.842-10.23-1.7,53.422-11.789-.358-5.405-49.883,8.669-46.373Z" transform="translate(-277.042 -201.436)" fill="#2f2e41"/>
  <path id="Path_8281" data-name="Path 8281" d="M851.249,540.982c-.256-1.139-.989-35.9-.989-35.9s12.12-39.788,12.231-40.114l.043-.128,9.2-3.45c.129-.059,3.195-1.425,5.7-.286a4.916,4.916,0,0,1,2.615,3.213c1.044.778,8.565,9.2,8.565,20.63l.284,26.966,6.306,29.235-.279.059a76.048,76.048,0,0,1-19.964,2.352C868.238,543.557,851.249,540.982,851.249,540.982Z" transform="translate(-482.531 -266.351)" fill="#3f3d56"/>
  <circle id="Ellipse_2074" data-name="Ellipse 2074" cx="12.437" cy="12.437" r="12.437" transform="translate(370.695 165.127)" fill="#ffb8b8"/>
  <path id="Path_8282" data-name="Path 8282" d="M686.351,408.841,664.594,439.2l-3.213-14.177Z" transform="translate(-285.503 -176.488)" opacity="0.2"/>
  <path id="Path_8283" data-name="Path 8283" d="M836.326,566.552a5.337,5.337,0,0,0,5-6.478l16.167-9.917-8.927-4.177-13.983,10.057a5.366,5.366,0,0,0,1.743,10.513Z" transform="translate(-474.093 -303.187)" fill="#ffb8b8"/>
  <path id="Path_8284" data-name="Path 8284" d="M652.829,427.635l-5.537,3.88,4.7,8.339,6.524-5.4Z" transform="translate(-279.421 -184.601)" fill="#a2d117"/>
  <path id="Path_8285" data-name="Path 8285" d="M855.153,511.017l13.024-15.1-4.99-20.823a9.111,9.111,0,0,1,16.882-6.442l.113.211,4.6,30.921-23.1,23.682Z" transform="translate(-484.643 -267.738)" fill="#3f3d56"/>
  <path id="Path_8286" data-name="Path 8286" d="M877.506,428.7l-10.322.371c-.629.023-2.337-6.768-2.56-8.177a3.845,3.845,0,0,0-4.011-3.11c-.773.073-2.721-1.371-4.732-3.08a7.582,7.582,0,0,1,.575-12.083q.172-.112.337-.205a18.369,18.369,0,0,1,8.771-2.016,16.4,16.4,0,0,1,7.995,1.612c4.34,2.332,6.65,7.427,6.853,12.35s-1.375,9.736-3.166,14.326" transform="translate(-483.782 -240.344)" fill="#2f2e41"/>
  <path id="Path_8287" data-name="Path 8287" d="M899.949,780.369h-125.6a.568.568,0,0,1,0-1.137h125.6a.568.568,0,0,1,0,1.137Z" transform="translate(-449.517 -403.876)" fill="#3f3d56"/>
</svg>
