<svg xmlns="http://www.w3.org/2000/svg" width="631.5" height="410.426" viewBox="0 0 631.5 410.426">
  <g id="Group_8422" data-name="Group 8422" transform="translate(0 0)">
    <path id="Path_8366" data-name="Path 8366" d="M1019.687,498.457h-22.2a3.142,3.142,0,0,1-2.468-1.189,3.078,3.078,0,0,1-.6-2.615,60.415,60.415,0,0,0-.293-27.93,3.122,3.122,0,0,1,1.691-3.582c9.275-4.341,17.792-4.228,25.313.335a3.16,3.16,0,0,1,1.5,2.2,98.825,98.825,0,0,1,.181,30.077A3.135,3.135,0,0,1,1019.687,498.457Z" transform="translate(-403.18 -247.796)" fill="#a2d117"/>
    <path id="Path_8367" data-name="Path 8367" d="M1022.272,492.884h-16.978a1.593,1.593,0,0,1,0-3.185h16.978a1.593,1.593,0,0,1,0,3.185Z" transform="translate(-406.1 -256.77)" fill="#fff"/>
    <path id="Path_8368" data-name="Path 8368" d="M1022.272,484.884h-16.978a1.593,1.593,0,0,1,0-3.185h16.978a1.593,1.593,0,0,1,0,3.185Z" transform="translate(-406.1 -254.355)" fill="#fff"/>
    <circle id="Ellipse_2089" data-name="Ellipse 2089" cx="117.99" cy="117.99" r="117.99" transform="translate(53.862 12.455)" fill="#f2f2f2"/>
    <circle id="Ellipse_2090" data-name="Ellipse 2090" cx="22.341" cy="22.341" r="22.341" transform="translate(286.352 200.261)" fill="#f2f2f2"/>
    <circle id="Ellipse_2091" data-name="Ellipse 2091" cx="9.076" cy="9.076" r="9.076" transform="translate(412.022 277.06)" fill="#f2f2f2"/>
    <path id="Path_8369" data-name="Path 8369" d="M826.652,587.937c-3.828-29.248-22.153-57.972-50.129-67.319a135.9,135.9,0,0,1,.591,93.306c-4.215,11.631-10.115,24.128-6,35.8,2.557,7.26,8.734,12.788,15.621,16.225s14.517,5.047,22.052,6.625l1.489,1.215C822.041,646.738,830.479,617.184,826.652,587.937Z" transform="translate(-335.476 -266.102)" fill="#f2f2f2"/>
    <path id="Path_8370" data-name="Path 8370" d="M778.995,520.9a116.161,116.161,0,0,1,29.3,65.189,50.023,50.023,0,0,1-.469,15.666,28.69,28.69,0,0,1-7.051,13.352c-3.194,3.554-6.872,6.82-9.146,11.088a17.567,17.567,0,0,0-.766,14.346c2.069,5.814,6.1,10.538,10.21,15.021,4.559,4.977,9.374,10.075,11.34,16.7.238.8,1.47.386,1.232-.415-3.422-11.525-14.673-18.013-20.085-28.378-2.525-4.837-3.608-10.464-1.3-15.6,2.016-4.493,5.806-7.864,9.071-11.434a30.615,30.615,0,0,0,7.38-12.8,46.244,46.244,0,0,0,1.069-15.59,112.694,112.694,0,0,0-8.45-34.194,118.221,118.221,0,0,0-21.475-33.93c-.56-.619-1.41.366-.854.981Z" transform="translate(-338.222 -265.833)" fill="#fff"/>
    <path id="Path_8371" data-name="Path 8371" d="M820.091,595.336a17.428,17.428,0,0,0,13.149-18.341c-.072-.833-1.37-.761-1.3.073A16.138,16.138,0,0,1,819.675,594.1c-.813.2-.392,1.429.416,1.232Z" transform="translate(-350.422 -282.94)" fill="#fff"/>
    <path id="Path_8372" data-name="Path 8372" d="M805.839,645.565a33.591,33.591,0,0,1-15.124-19.249c-.241-.8-1.473-.385-1.232.415a34.939,34.939,0,0,0,15.779,20c.724.423,1.3-.744.577-1.165Z" transform="translate(-341.432 -297.875)" fill="#fff"/>
    <path id="Path_8373" data-name="Path 8373" d="M797.5,552.327a9.865,9.865,0,0,1-9.352-.415c-.718-.432-1.29.736-.577,1.165a11.055,11.055,0,0,0,10.344.482.672.672,0,0,0,.408-.824.653.653,0,0,0-.824-.408Z" transform="translate(-340.766 -275.519)" fill="#fff"/>
    <path id="Path_8374" data-name="Path 8374" d="M658.067,594.881c.441.282.881.565,1.322.858A129.925,129.925,0,0,1,676.083,608.6c.408.359.817.73,1.214,1.1A136.962,136.962,0,0,1,707.3,650.229a133.019,133.019,0,0,1,7.406,18.8c2.745,8.9,5.014,18.774,10.382,26.037a22.834,22.834,0,0,0,1.792,2.183l48.09-.308c.109-.056.219-.1.328-.156l1.921.076c-.079-.34-.169-.69-.248-1.03-.045-.2-.1-.394-.146-.592-.034-.131-.068-.263-.09-.384-.011-.044-.023-.088-.033-.12-.023-.12-.057-.23-.079-.34q-.743-2.941-1.53-5.882c0-.011,0-.011-.011-.022-4.035-14.929-9.352-29.653-16.734-43.1-.222-.4-.444-.82-.688-1.224a126.916,126.916,0,0,0-11.511-17.219,112.182,112.182,0,0,0-7.527-8.5,93.3,93.3,0,0,0-23.46-17.34c-17.306-9-37.3-12.357-55.695-6.677C659,594.579,658.538,594.724,658.067,594.881Z" transform="translate(-301.776 -287.539)" fill="#f2f2f2"/>
    <path id="Path_8375" data-name="Path 8375" d="M657.981,596.589A116.162,116.162,0,0,1,720.621,631a50.024,50.024,0,0,1,9.058,12.791,28.691,28.691,0,0,1,2.41,14.906c-.41,4.76-1.381,9.583-.626,14.36a17.567,17.567,0,0,0,8.026,11.916c5.153,3.4,11.218,4.739,17.2,5.846,6.637,1.229,13.55,2.4,19.109,6.505.673.5,1.406-.577.733-1.073-9.671-7.142-22.56-5.548-33.123-10.566-4.929-2.342-9.181-6.183-10.434-11.673-1.1-4.8-.1-9.774.358-14.591a30.614,30.614,0,0,0-1.813-14.663,46.242,46.242,0,0,0-8.533-13.092,112.7,112.7,0,0,0-27.334-22.215,118.222,118.222,0,0,0-37.575-14.161c-.82-.157-.906,1.141-.091,1.3Z" transform="translate(-301.579 -288.637)" fill="#fff"/>
    <path id="Path_8376" data-name="Path 8376" d="M739.971,627.947a17.428,17.428,0,0,0-.544-22.561c-.559-.622-1.552.217-.992.84a16.138,16.138,0,0,1,.463,20.987C738.369,627.861,739.445,628.591,739.971,627.947Z" transform="translate(-325.984 -291.622)" fill="#fff"/>
    <path id="Path_8377" data-name="Path 8377" d="M754.462,679.934A33.591,33.591,0,0,1,730.8,673.67c-.675-.495-1.408.579-.733,1.073a34.94,34.94,0,0,0,24.639,6.468c.832-.1.588-1.375-.24-1.278Z" transform="translate(-323.426 -312.26)" fill="#fff"/>
    <path id="Path_8378" data-name="Path 8378" d="M691.665,608.128a9.865,9.865,0,0,1-7.716,5.3c-.833.087-.587,1.364.24,1.278a11.055,11.055,0,0,0,8.549-5.843.672.672,0,0,0-.17-.9.653.653,0,0,0-.9.17Z" transform="translate(-309.432 -292.431)" fill="#fff"/>
    <path id="Path_8379" data-name="Path 8379" d="M984.881,413.481l-6.5-62.949-1.717-25.908,18.2-3.291s2.726,17.81,5.11,28.262c2.353,10.314-3.135,62.5-3.28,63.881a8.856,8.856,0,1,1-11.813.006Z" transform="translate(-397.939 -205.951)" fill="#ffb8b8"/>
    <path id="Path_8380" data-name="Path 8380" d="M728.24,558.65h-9.26l-4.405-35.718h13.667Z" transform="translate(-215.682 -157.838)" fill="#ffb6b6"/>
    <path id="Path_8381" data-name="Path 8381" d="M872.365,736.042H842.506v-.378a11.622,11.622,0,0,1,11.621-11.622h0l5.454-4.138,10.176,4.138h2.607Z" transform="translate(-357.446 -326.253)" fill="#2f2e41"/>
    <path id="Path_8382" data-name="Path 8382" d="M845.137,558.65h-9.26l-4.405-35.718h13.667Z" transform="translate(-250.965 -157.838)" fill="#ffb6b6"/>
    <path id="Path_8383" data-name="Path 8383" d="M989.261,736.042H959.4v-.378a11.622,11.622,0,0,1,11.621-11.622h0l5.454-4.138,10.176,4.138h2.607Z" transform="translate(-392.729 -326.253)" fill="#2f2e41"/>
    <path id="Path_8384" data-name="Path 8384" d="M939.8,455.509l7.789,73.992s10.369,74.087,8.421,84.31.487,11.683.487,11.683l-17.767-1.265s.487-6.328-2.434-9.249-1.46-11.683-1.46-11.683L900.367,482.769l-20.932,63.283s-3.408,69.611-3.894,70.585-1.947,14.117-1.947,14.117H855.582s2.434-7.789-.974-10.223-6.328-.487-3.408-4.868,3.894-9.736,2.921-12.17-.974-12.17-.974-12.17,1.46-131.433,9.736-135.814S939.8,455.509,939.8,455.509Z" transform="translate(-359.709 -245.863)" fill="#2f2e41"/>
    <circle id="Ellipse_2092" data-name="Ellipse 2092" cx="19.157" cy="19.157" r="19.157" transform="translate(524.045 21.517)" fill="#ffb8b8"/>
    <path id="Path_8385" data-name="Path 8385" d="M994.693,316.4l-18.841,6.757-5.738,2.056-4.188-53.5,14.374,7.624a.3.3,0,0,1,.063.063,38.9,38.9,0,0,1,6.187,9.18C994.435,304.605,994.693,316.4,994.693,316.4Z" transform="translate(-394.698 -190.975)" fill="#3f3d56"/>
    <path id="Path_8386" data-name="Path 8386" d="M818.581,409.314s19.149-59.5,19.484-60.21c2.508-19.046,9.722-27.448,10.8-26.536l18.619,6.45s-5.538,17.537-9.288,27.954c-3.583,9.954-28.121,55.909-28.81,57.109a8.856,8.856,0,1,1-10.808-4.768Z" transform="translate(-348.379 -206.304)" fill="#ffb8b8"/>
    <path id="Path_8387" data-name="Path 8387" d="M890.622,275.779s-16.12-7.9-22.372,7.616c-4.094,10.464-6.033,15.029-8.767,25.928,0,0,16.432,2.465,21.7,11.751Z" transform="translate(-362.57 -191.595)" fill="#3f3d56"/>
    <path id="Path_8388" data-name="Path 8388" d="M950.805,402.086c-37.1,7.662-86.264-5.51-86.264-5.51l13.115-56.852-4.663-59.5c-.569-7.276,3.575-14.1,10.021-16.513l8.9-3.334,7.358-10.534,21.017.69,8.4,11.059,6.63,3.518,14.374,7.624.063.032v.032l-4.511,43.755-2.72,26.382s8.263,29.672,6.567,33.607-.221,2.031.19,4.131,1.67,2.233,1.86,6.371S950.805,402.086,950.805,402.086Z" transform="translate(-364.097 -184.375)" fill="#3f3d56"/>
    <path id="Path_8389" data-name="Path 8389" d="M934.936,196.4c-1.514-1.493.765-5.447.335-7.53-.494-2.388-3.125-2.458-3.752-4.814-.675-2.535-3.376-3.914-5.873-4.718a37.975,37.975,0,0,0-19.791-.906,75.543,75.543,0,0,0-8.562,2.637c-1.932.68-.069-1.171-2-.49a3.034,3.034,0,0,0-1.812,1.2c-.347.657.121,1.707.852,1.574l-7.077,3.121,3.969,4.158a2.768,2.768,0,0,0-3.145,3.517,3.975,3.975,0,0,0,3.042,2.106c2.125.413.513,2.436,2.678,2.4s17.258-4.476,18.311-2.584c.749,1.347.667,3.132,1.737,4.242,1.369,1.42,3.759.9,5.5-.024s3.509-2.2,5.469-1.973c2.046.231,3.594,4.013,4.1,6.009a15.376,15.376,0,0,1-.135,6.132c-.421,2.671-4.638,5.343-5.06,8.014,4.68,1.294,9.7-2.824,11.552-9.986C935.086,203.956,938.162,199.583,934.936,196.4Z" transform="translate(-370.953 -162.548)" fill="#2f2e41"/>
    <path id="Path_8390" data-name="Path 8390" d="M480.265,505.6a113.852,113.852,0,0,1-112.709-99.446l1.385-.175a112.29,112.29,0,0,0,222.809-28.148l1.385-.175A113.751,113.751,0,0,1,480.265,505.6Z" transform="translate(-214.091 -222.952)" fill="#3f3d56"/>
    <path id="Path_8391" data-name="Path 8391" d="M522.2,577.556H500a3.142,3.142,0,0,1-2.468-1.189,3.078,3.078,0,0,1-.6-2.615,60.4,60.4,0,0,0-.363-28.207,3.126,3.126,0,0,1,1.362-3.4c7.682-4.759,16.046-4.61,25.572.455a3.177,3.177,0,0,1,1.653,2.286,98.832,98.832,0,0,1,.164,29.968A3.135,3.135,0,0,1,522.2,577.556Z" transform="translate(-253.002 -271.555)" fill="#a2d117"/>
    <path id="Path_8392" data-name="Path 8392" d="M377.2,406.465h-22.2a3.142,3.142,0,0,1-2.468-1.189,3.077,3.077,0,0,1-.6-2.615,60.384,60.384,0,0,0-.388-28.3,3.148,3.148,0,0,1,1.221-3.308c11.417-8.212,20.409-7.973,26.725.709a3.155,3.155,0,0,1,.553,1.333,98.817,98.817,0,0,1,.277,30.667,3.135,3.135,0,0,1-3.114,2.7Z" transform="translate(-209.227 -219.152)" fill="#ccc"/>
    <path id="Path_8393" data-name="Path 8393" d="M514.478,563.136H506.84a1.593,1.593,0,0,1,0-3.185h7.638a1.593,1.593,0,1,1,0,3.185Z" transform="translate(-255.65 -277.974)" fill="#fff"/>
    <path id="Path_8394" data-name="Path 8394" d="M523.818,572.149H506.84a1.593,1.593,0,0,1,0-3.185h16.978a1.593,1.593,0,0,1,0,3.185Z" transform="translate(-255.65 -280.695)" fill="#fff"/>
    <path id="Path_8395" data-name="Path 8395" d="M374.478,391.136h-7.639a1.593,1.593,0,0,1,0-3.185h7.638a1.593,1.593,0,1,1,0,3.185Z" transform="translate(-213.394 -226.059)" fill="#fff"/>
    <path id="Path_8396" data-name="Path 8396" d="M374.478,399.136h-7.639a1.593,1.593,0,0,1,0-3.185h7.638a1.593,1.593,0,1,1,0,3.185Z" transform="translate(-213.394 -228.474)" fill="#fff"/>
    <path id="Path_8397" data-name="Path 8397" d="M374.478,407.136h-7.639a1.593,1.593,0,0,1,0-3.185h7.638a1.593,1.593,0,1,1,0,3.185Z" transform="translate(-213.394 -230.888)" fill="#fff"/>
    <path id="Path_8398" data-name="Path 8398" d="M782.582,436.832H711.6a7.183,7.183,0,0,1-7.175-7.175V385.94a7.183,7.183,0,0,1,7.175-7.175h70.979a7.183,7.183,0,0,1,7.175,7.175v43.716a7.183,7.183,0,0,1-7.175,7.175Z" transform="translate(-315.77 -223.286)" fill="#e6e6e6"/>
    <path id="Path_8399" data-name="Path 8399" d="M756.735,433.634H718.947a6.727,6.727,0,0,1-6.72-6.72V393.549a6.727,6.727,0,0,1,6.72-6.72h61a6.727,6.727,0,0,1,6.719,6.719V403.7A29.965,29.965,0,0,1,756.735,433.634Z" transform="translate(-318.124 -225.721)" fill="#fff"/>
    <path id="Path_8400" data-name="Path 8400" d="M778.709,411.622H729.88a1.593,1.593,0,1,1,0-3.185h48.83a1.593,1.593,0,0,1,0,3.185Z" transform="translate(-322.971 -232.242)" fill="#a2d117"/>
    <path id="Path_8401" data-name="Path 8401" d="M737.517,420.635h-7.638a1.593,1.593,0,1,1,0-3.185h7.638a1.593,1.593,0,1,1,0,3.185Z" transform="translate(-322.971 -234.963)" fill="#a2d117"/>
    <path id="Path_8402" data-name="Path 8402" d="M751.046,429.649H729.879a1.593,1.593,0,0,1,0-3.185h21.167a1.593,1.593,0,0,1,0,3.185Z" transform="translate(-322.971 -237.683)" fill="#a2d117"/>
    <circle id="Ellipse_2093" data-name="Ellipse 2093" cx="15.015" cy="15.015" r="15.015" transform="translate(371.167 139.593)" fill="#3f3d56"/>
    <path id="Path_8403" data-name="Path 8403" d="M457.431,200.259A39.158,39.158,0,0,1,534.269,215.4l-1.37-.27a37.761,37.761,0,1,0-74.1-14.6Z" transform="translate(-241.218 -159.871)" fill="#3f3d56"/>
    <path id="Path_8404" data-name="Path 8404" d="M467.061,232.864l-22.185.919a3.142,3.142,0,0,1-2.515-1.086,3.078,3.078,0,0,1-.71-2.588,60.417,60.417,0,0,0-1.449-27.894,3.122,3.122,0,0,1,1.542-3.649c9.087-4.721,17.6-4.961,25.306-.712a3.16,3.16,0,0,1,1.586,2.136,98.83,98.83,0,0,1,1.426,30.044A3.135,3.135,0,0,1,467.061,232.864Z" transform="translate(-235.979 -167.771)" fill="#a2d117"/>
    <path id="Path_8405" data-name="Path 8405" d="M469.333,227.129l-16.963.7a1.593,1.593,0,1,1-.132-3.182l16.963-.7a1.593,1.593,0,0,1,.132,3.182Z" transform="translate(-239.19 -176.557)" fill="#fff"/>
    <path id="Path_8406" data-name="Path 8406" d="M469,219.137l-16.963.7a1.593,1.593,0,0,1-.132-3.182l16.963-.7a1.593,1.593,0,0,1,.132,3.182Z" transform="translate(-239.09 -174.144)" fill="#fff"/>
    <path id="Path_8407" data-name="Path 8407" d="M652.9,214.136H581.919a7.183,7.183,0,0,1-7.175-7.175V163.244a7.183,7.183,0,0,1,7.175-7.175H652.9a7.183,7.183,0,0,1,7.175,7.175v43.717A7.183,7.183,0,0,1,652.9,214.136Z" transform="translate(-276.627 -156.069)" fill="#e6e6e6"/>
    <path id="Path_8408" data-name="Path 8408" d="M627.051,210.939H589.262a6.727,6.727,0,0,1-6.72-6.72V170.854a6.727,6.727,0,0,1,6.72-6.72h61a6.727,6.727,0,0,1,6.719,6.72v10.154a29.965,29.965,0,0,1-29.931,29.931Z" transform="translate(-278.98 -158.504)" fill="#fff"/>
    <path id="Path_8409" data-name="Path 8409" d="M649.025,188.926H600.195a1.593,1.593,0,1,1,0-3.185h48.83a1.593,1.593,0,1,1,0,3.185Z" transform="translate(-283.828 -165.025)" fill="#a2d117"/>
    <path id="Path_8410" data-name="Path 8410" d="M607.833,197.94h-7.639a1.593,1.593,0,0,1,0-3.185h7.638a1.593,1.593,0,1,1,0,3.185Z" transform="translate(-283.828 -167.746)" fill="#a2d117"/>
    <path id="Path_8411" data-name="Path 8411" d="M621.362,206.953H600.194a1.593,1.593,0,1,1,0-3.185h21.167a1.593,1.593,0,0,1,0,3.185Z" transform="translate(-283.828 -170.466)" fill="#a2d117"/>
    <circle id="Ellipse_2094" data-name="Ellipse 2094" cx="15.015" cy="15.015" r="15.015" transform="translate(273.123 62.532) rotate(-58.134)" fill="#3f3d56"/>
    <path id="Path_8412" data-name="Path 8412" d="M961.878,743.376H755.588a.642.642,0,0,1,0-1.284H961.876a.642.642,0,0,1,0,1.284Z" transform="translate(-331.017 -332.95)" fill="#ccc"/>
    <path id="Path_8413" data-name="Path 8413" d="M280.229,368.068a65.649,65.649,0,0,1,122.806-46.455l-1.306.494a64.253,64.253,0,0,0-120.194,45.466Z" transform="translate(-186.445 -193.226)" fill="#3f3d56"/>
    <path id="Path_8414" data-name="Path 8414" d="M353.211,296.587h-22.2a3.142,3.142,0,0,1-2.468-1.189,3.078,3.078,0,0,1-.6-2.615,60.4,60.4,0,0,0-.347-28.143,3.115,3.115,0,0,1,1.437-3.447c8.043-4.682,16.633-4.539,25.529.426a3.151,3.151,0,0,1,1.6,2.258,98.835,98.835,0,0,1,.169,30.007A3.135,3.135,0,0,1,353.211,296.587Z" transform="translate(-201.998 -186.771)" fill="#a2d117"/>
    <path id="Path_8415" data-name="Path 8415" d="M345.478,281.136H337.84a1.593,1.593,0,0,1,0-3.185h7.638a1.593,1.593,0,1,1,0,3.185Z" transform="translate(-204.64 -192.857)" fill="#fff"/>
    <path id="Path_8416" data-name="Path 8416" d="M354.818,290.149H337.84a1.593,1.593,0,0,1,0-3.185h16.978a1.593,1.593,0,0,1,0,3.185Z" transform="translate(-204.64 -195.578)" fill="#fff"/>
    <path id="Path_8417" data-name="Path 8417" d="M225.9,380.136H154.919a7.183,7.183,0,0,1-7.175-7.175V329.244a7.183,7.183,0,0,1,7.175-7.175H225.9a7.183,7.183,0,0,1,7.175,7.175v43.717a7.183,7.183,0,0,1-7.175,7.175Z" transform="translate(-147.744 -206.174)" fill="#e6e6e6"/>
    <path id="Path_8418" data-name="Path 8418" d="M200.051,376.939H162.262a6.727,6.727,0,0,1-6.72-6.72V336.854a6.727,6.727,0,0,1,6.72-6.72h61a6.727,6.727,0,0,1,6.72,6.72v10.154A29.965,29.965,0,0,1,200.051,376.939Z" transform="translate(-150.098 -208.608)" fill="#fff"/>
    <path id="Path_8419" data-name="Path 8419" d="M222.025,354.926H173.195a1.593,1.593,0,0,1,0-3.185h48.83a1.593,1.593,0,0,1,0,3.185Z" transform="translate(-154.945 -215.13)" fill="#a2d117"/>
    <path id="Path_8420" data-name="Path 8420" d="M180.833,363.94h-7.639a1.593,1.593,0,0,1,0-3.185h7.638a1.593,1.593,0,1,1,0,3.185Z" transform="translate(-154.945 -217.85)" fill="#a2d117"/>
    <path id="Path_8421" data-name="Path 8421" d="M194.362,372.953H173.194a1.593,1.593,0,0,1,0-3.185h21.167a1.593,1.593,0,0,1,0,3.185Z" transform="translate(-154.945 -220.571)" fill="#a2d117"/>
    <circle id="Ellipse_2095" data-name="Ellipse 2095" cx="15.015" cy="15.015" r="15.015" transform="translate(72.749 177.031) rotate(-58.134)" fill="#3f3d56"/>
    <path id="Path_8422" data-name="Path 8422" d="M462.217,356.121h-22.2a3.142,3.142,0,0,1-2.468-1.189,3.078,3.078,0,0,1-.6-2.615,60.406,60.406,0,0,0-.335-28.094,3.134,3.134,0,0,1,1.483-3.475c10.786-6.174,19.327-6,26.111.521a3.1,3.1,0,0,1,.893,1.729,98.829,98.829,0,0,1,.236,30.421,3.135,3.135,0,0,1-3.114,2.7Z" transform="translate(-234.905 -204.415)" fill="#ff6584"/>
    <path id="Path_8423" data-name="Path 8423" d="M456.478,342.136H448.84a1.593,1.593,0,1,1,0-3.185h7.638a1.593,1.593,0,1,1,0,3.185Z" transform="translate(-238.144 -211.269)" fill="#fff"/>
    <path id="Path_8424" data-name="Path 8424" d="M465.818,351.149H448.84a1.593,1.593,0,0,1,0-3.185h16.978a1.593,1.593,0,1,1,0,3.185Z" transform="translate(-238.144 -213.99)" fill="#fff"/>
  </g>
</svg>
