<svg id="Group_8504" data-name="Group 8504" xmlns="http://www.w3.org/2000/svg" width="500.178" height="348" viewBox="0 0 500.178 348">
  <ellipse id="Ellipse_2098" data-name="Ellipse 2098" cx="99.657" cy="7.569" rx="99.657" ry="7.569" transform="translate(0 332.862)" fill="#e6e6e6"/>
  <path id="Path_8433" data-name="Path 8433" d="M324.272,265.493c17.343-7.377,38.945-2.7,60.041.541.2-3.928,2.576-8.709.083-11.45-3.028-3.33-2.75-6.828-.927-10.346,4.66-9-2.016-18.571-8.757-26.532a14.929,14.929,0,0,0-12.461-5.23l-12.487.892a14.954,14.954,0,0,0-13.279,10.689h0c-2.982,4.055-4.578,8.1-3.573,12.122-4.466,3.052-5.216,6.736-3.21,10.889a6.26,6.26,0,0,1-.077,7.635,35.254,35.254,0,0,0-5.242,10.411Z" transform="translate(-248.096 -188.278)" fill="#2f2e41"/>
  <path id="Path_8434" data-name="Path 8434" d="M763.831,637.62H410.352A11.852,11.852,0,0,1,398.5,625.767h0q192.2-22.338,377.183,0h0a11.852,11.852,0,0,1-11.852,11.852Z" transform="translate(-275.505 -336.78)" fill="#2f2e41"/>
  <path id="Path_8435" data-name="Path 8435" d="M775.683,486.064l-377.183-.7,43.714-73.554.209-.349V249.36a14.982,14.982,0,0,1,14.984-14.983H714.685a14.982,14.982,0,0,1,14.983,14.984V412.58Z" transform="translate(-275.505 -196.379)" fill="#3f3d56"/>
  <path id="Path_8436" data-name="Path 8436" d="M488.493,250.957a4.886,4.886,0,0,0-4.88,4.88V403.643a4.886,4.886,0,0,0,4.88,4.88H748.547a4.886,4.886,0,0,0,4.88-4.88V255.837a4.886,4.886,0,0,0-4.88-4.88Z" transform="translate(-306.934 -202.502)" fill="#fff"/>
  <path id="Path_8437" data-name="Path 8437" d="M483.968,531.718a2.1,2.1,0,0,0-1.9,1.217L468.6,562.218a2.091,2.091,0,0,0,1.9,2.966H753.758a2.091,2.091,0,0,0,1.87-3.027l-14.641-29.282a2.081,2.081,0,0,0-1.87-1.156Z" transform="translate(-301.319 -306.175)" fill="#2f2e41"/>
  <circle id="Ellipse_2099" data-name="Ellipse 2099" cx="3.137" cy="3.137" r="3.137" transform="translate(307.403 39.74)" fill="#fff"/>
  <path id="Path_8438" data-name="Path 8438" d="M648.5,593.619a2.1,2.1,0,0,0-2.019,1.548L643.1,607.716a2.091,2.091,0,0,0,2.019,2.636h64.256a2.091,2.091,0,0,0,1.976-2.776l-4.344-12.549a2.093,2.093,0,0,0-1.977-1.407Z" transform="translate(-365.799 -329.033)" fill="#2f2e41"/>
  <path id="Path_8439" data-name="Path 8439" d="M551.76,337.135v2.789H264.306l.216-.348v-2.44Z" transform="translate(-97.597 -124.49)" fill="#2f2e41"/>
  <circle id="Ellipse_2100" data-name="Ellipse 2100" cx="48.804" cy="48.804" r="48.804" transform="translate(397.341 0)" fill="#a2d117"/>
  <path id="Path_8440" data-name="Path 8440" d="M917.584,267.672H877.146a2.792,2.792,0,0,1-2.789-2.789v-24.4a2.792,2.792,0,0,1,2.789-2.789h40.437a2.792,2.792,0,0,1,2.789,2.789v24.4A2.792,2.792,0,0,1,917.584,267.672Zm-40.437-27.191v24.4h40.439l0-24.4Z" transform="translate(-451.22 -197.604)" fill="#fff"/>
  <path id="Path_8441" data-name="Path 8441" d="M916.037,227.42h-25.1V216.265c0-8.08,5.278-13.944,12.55-13.944s12.549,5.864,12.549,13.944Zm-22.31-2.789h19.521v-8.367c0-6.568-4.014-11.155-9.761-11.155s-9.761,4.587-9.761,11.155Z" transform="translate(-457.343 -184.542)" fill="#fff"/>
  <circle id="Ellipse_2101" data-name="Ellipse 2101" cx="2.789" cy="2.789" r="2.789" transform="translate(443.356 51.593)" fill="#fff"/>
  <path id="Path_8442" data-name="Path 8442" d="M736.98,387.74H536a3.726,3.726,0,0,1-3.722-3.722V334.163A3.726,3.726,0,0,1,536,330.441H736.98a3.726,3.726,0,0,1,3.722,3.722v49.854A3.726,3.726,0,0,1,736.98,387.74ZM536,331.93a2.235,2.235,0,0,0-2.233,2.233v49.854A2.236,2.236,0,0,0,536,386.251H736.98a2.236,2.236,0,0,0,2.233-2.233V334.163a2.236,2.236,0,0,0-2.233-2.233Z" transform="translate(-324.905 -231.852)" fill="#e6e6e6"/>
  <circle id="Ellipse_2102" data-name="Ellipse 2102" cx="15.161" cy="15.161" r="15.161" transform="translate(227.164 110.164)" fill="#e6e6e6"/>
  <path id="Path_8443" data-name="Path 8443" d="M641.724,356.8a2.527,2.527,0,1,0,0,5.054h119.12a2.527,2.527,0,1,0,0-5.054Z" transform="translate(-364.385 -241.587)" fill="#e6e6e6"/>
  <path id="Path_8444" data-name="Path 8444" d="M641.724,380.842a2.527,2.527,0,1,0,0,5.054h51.258a2.527,2.527,0,0,0,0-5.054Z" transform="translate(-364.385 -250.463)" fill="#e6e6e6"/>
  <path id="Path_8445" data-name="Path 8445" d="M445,369.781l-37.153,19.752-.47-16.46A110.03,110.03,0,0,0,441.7,361.786l3.886-9.6a6.508,6.508,0,0,1,11.061-1.689h0a6.508,6.508,0,0,1-.573,8.874Z" transform="translate(-278.782 -238.38)" fill="#ffb8b8"/>
  <path id="Path_8446" data-name="Path 8446" d="M322.947,548.685h0a7.3,7.3,0,0,1,.927-5.906l8.161-12.525a14.263,14.263,0,0,1,18.5-4.881h0c-3.43,5.838-2.952,10.96,1.185,15.411A74.192,74.192,0,0,0,334.1,552.8a7.3,7.3,0,0,1-11.155-4.111Z" transform="translate(-247.512 -303.243)" fill="#2f2e41"/>
  <path id="Path_8447" data-name="Path 8447" d="M429.619,505.181h0a14,14,0,0,1-11.9,6.8l-54.219.411-2.351-13.638L385.13,491.7l-20.222-15.519,22.1-25.866,40.147,37.418A14,14,0,0,1,429.619,505.181Z" transform="translate(-261.712 -276.116)" fill="#2f2e41"/>
  <path id="Path_8448" data-name="Path 8448" d="M337.291,576.427h-12.7c-11.4-78.148-23.006-156.513,11.287-185.763l40.445,6.584-5.173,34.331-22.574,25.866Z" transform="translate(-243.971 -254.09)" fill="#2f2e41"/>
  <path id="Path_8449" data-name="Path 8449" d="M353.827,700.093h0a7.3,7.3,0,0,1-5.906-.926l-13.787-1.853a14.262,14.262,0,0,1-4.883-18.5h0c5.839,3.43,10.96,2.951,15.411-1.185,3.145,6.35,8.326,5.963,13.275,11.312a7.3,7.3,0,0,1-4.111,11.155Z" transform="translate(-249.346 -360.053)" fill="#2f2e41"/>
  <path id="Path_8450" data-name="Path 8450" d="M385.406,288.9l-23.514-5.643c3.905-7.994,4.227-16.889,2.351-26.336l15.99-.47C380.733,268.2,382.249,279.178,385.406,288.9Z" transform="translate(-261.988 -204.532)" fill="#ffb8b8"/>
  <path id="Path_8451" data-name="Path 8451" d="M383.643,373.964c-17.117,11.664-29.212.4-38.442-16.982,1.283-10.635-.794-23.363-4.64-37.193a25.316,25.316,0,0,1,15.457-30.529h0l20.222,8.465c17.171,14,20.551,29.157,14.109,45.147Z" transform="translate(-253.762 -216.646)" fill="#a2d117"/>
  <path id="Path_8452" data-name="Path 8452" d="M306.616,315.254l-18.811,9.876,33.39,19.752,4.646,11.46a6.078,6.078,0,0,1-3.651,8.03h0a6.078,6.078,0,0,1-8.049-5.389l-.47-7.987-42.439-14a9.924,9.924,0,0,1-6.227-6.062h0a9.923,9.923,0,0,1,3.723-11.544l34.126-23.412Z" transform="translate(-225.994 -219.124)" fill="#ffb8b8"/>
  <path id="Path_8453" data-name="Path 8453" d="M346.279,314.228c-7.846-3.438-14.98.3-23.985,3.292l-1.411-24.925c8.941-4.766,17.467-6.051,25.4-2.351Z" transform="translate(-246.845 -216.217)" fill="#a2d117"/>
  <circle id="Ellipse_2103" data-name="Ellipse 2103" cx="15.013" cy="15.013" r="15.013" transform="translate(93.806 34.243)" fill="#ffb8b8"/>
  <path id="Path_8454" data-name="Path 8454" d="M384.929,241.337c-14.864,1.456-26.19-.975-33.429-7.9v-5.574h32.168Z" transform="translate(-258.15 -193.975)" fill="#2f2e41"/>
</svg>
