<svg xmlns="http://www.w3.org/2000/svg" width="362.24" height="369.116" viewBox="0 0 362.24 369.116">
  <g id="Group_8505" data-name="Group 8505" transform="translate(-29.462 50.583) rotate(-25)">
    <path id="Path_4801" data-name="Path 4801" d="M281.243,99.918c-2.14-3.668-11.4.259-13.1-3.069s6.907-8.371,11.822-19.915c.886-2.082,6.472-15.2,2.337-19.25-7.838-7.674-43.7,23.993-56.256,13.63-2.755-2.274-4.679-6.814-13.016-14.186-3.317-2.932-5.322-4.256-7.263-3.764-2.754.7-2.972,4.445-5.925,11.81-4.429,11.046-7.048,10.379-9.629,19.192-1.916,6.542-1.478,10.346-3.732,11.087-3.19,1.049-6.126-5.891-10.168-5.269-4.125.634-6.619,8.714-7.407,14.763-1.478,11.352,2.624,18.843,4.9,26.719,2.471,8.56,3.937,21.578-1.769,40.006L115.557,333.386C128.025,300.2,164.126,209.239,179.3,175.436c4.379-9.758,9.214-19.656,19.142-23.562,9.559-3.761,22.686-1.516,39.422-5.613,1.954-.478,7.378-1.881,8.061-5.123.564-2.68-2.626-4.177-2.136-6.687.657-3.367,6.931-3.409,14.641-7.294a45.688,45.688,0,0,0,11.736-8.8c.878-.845,13.931-13.556,11.081-18.439h0Z" transform="translate(-14.72 16.401)" fill="#a2d117" opacity="0.43"/>
    <path id="Path_4802" data-name="Path 4802" d="M81.536,157.037c-2.389.009-3.164,5.761-5.263,5.65s-2.05-5.86-6.207-11.643c-.75-1.043-5.474-7.615-8.622-6.72-5.967,1.7-1.023,28.723-9.649,31.994-1.893.718-4.641.368-10.606,2.4-2.373.808-3.591,1.427-3.913,2.537-.457,1.575,1.289,2.765,3.994,6.363,4.057,5.4,2.979,6.511,6.49,10.34,2.607,2.843,4.57,3.722,4.277,5.061-.414,1.894-4.612,1.356-5.479,3.552-.884,2.241,2.3,5.816,4.992,7.954,5.056,4.013,9.857,4.128,14.317,5.267,4.847,1.237,11.557,4.262,18.81,12.425l61.8,74.83C134.051,291.252,100.538,247,88.59,229.679c-3.449-5-6.834-10.268-5.856-16.347.942-5.853,5.814-11.753,8.664-21.284.333-1.113,1.221-4.223-.148-5.5-1.132-1.055-2.775.1-3.846-.864-1.437-1.3.354-4.441.7-9.408a26.809,26.809,0,0,0-.863-8.393c-.155-.682-2.527-10.86-5.707-10.848h0Z" transform="translate(-37.203 44.416)" fill="#a2d117" opacity="0.25"/>
    <path id="Path_4803" data-name="Path 4803" d="M109,175.709l-1.439-13.058.658-.99c3.043-4.578,4.594-9.048,4.613-13.291,0-.675-.028-1.349-.059-2.036a20.729,20.729,0,0,1,1.458-10.057c.974-2.2,3.71-7.3,7.823-6.665a4.631,4.631,0,0,1,2.581,1.28c.093-.151.189-.3.292-.467a14.278,14.278,0,0,1,3.273-3.657,16.663,16.663,0,0,0,2.742-2.818c.534-.675.949-1.267,1.3-1.765,1.064-1.507,2.454-3.3,4.9-3.272,2.618.126,3.989,2.327,4.9,3.783a31.677,31.677,0,0,1,2.845,5.712,9.95,9.95,0,0,0,.481,1.122c.844,1.261,7.7.082,10.286-.347,5.8-.984,10.826-1.835,12.895,1.885,1.483,2.661.382,6.179-3.372,10.738a21.121,21.121,0,0,1-3.518,3.342,4.36,4.36,0,0,1,2.066,2.743h0c.782,3.165-1.9,6.337-7.953,9.439a21.169,21.169,0,0,1-6.368,2.308,24.617,24.617,0,0,1-3.57.322,4.351,4.351,0,0,1-.524,1.936c-1.064,1.986-3.279,2.932-6.617,2.7a51.119,51.119,0,0,1-9.365-1.532,22.37,22.37,0,0,0-5.912-.9c-2.922.24-5.174,2.617-7.817,5.7l-6.6,7.837h0Z" transform="translate(-17.013 36.616)" fill="#f2f2f2"/>
    <path id="Path_4804" data-name="Path 4804" d="M127.539,114.356l-12.063,4.727-1.109-.4c-5.129-1.83-9.777-2.221-13.82-1.163-.643.168-1.277.37-1.923.575a19.8,19.8,0,0,1-9.941,1.118c-2.341-.4-7.884-1.8-8.327-6a4.8,4.8,0,0,1,.564-2.862c-.168-.053-.336-.109-.518-.168a14.063,14.063,0,0,1-4.311-2.29,16.471,16.471,0,0,0-3.378-1.981c-.777-.353-1.447-.612-2.01-.83-1.7-.664-3.767-1.574-4.358-3.991-.544-2.606,1.2-4.512,2.358-5.775a31.127,31.127,0,0,1,4.715-4.245,9.753,9.753,0,0,0,.946-.757c.986-1.149-1.876-7.593-2.939-10.024-2.408-5.456-4.492-10.177-1.476-13.155,2.156-2.133,5.784-1.942,11.075.591A20.933,20.933,0,0,1,85.1,70.34a4.361,4.361,0,0,1,2.086-2.727h0c2.814-1.571,6.512.256,11,5.425a21.746,21.746,0,0,1,3.812,5.675,25.7,25.7,0,0,1,1.212,3.428,4.162,4.162,0,0,1,1.975.024c2.16.542,3.622,2.48,4.253,5.818a53.556,53.556,0,0,1,.917,9.595,23.436,23.436,0,0,0,.648,6.039c.969,2.812,3.8,4.423,7.408,6.239l9.133,4.5h0Z" transform="translate(-28.871 20.222)" fill="#f2f2f2"/>
    <path id="Path_4805" data-name="Path 4805" d="M109,86.854,107.566,73.8l.658-.99c3.043-4.578,4.594-9.048,4.613-13.291,0-.675-.028-1.349-.059-2.037a20.729,20.729,0,0,1,1.458-10.057c.974-2.2,3.71-7.3,7.823-6.665a4.631,4.631,0,0,1,2.581,1.28c.093-.151.189-.3.292-.467a14.278,14.278,0,0,1,3.273-3.657,16.664,16.664,0,0,0,2.742-2.818c.534-.675.949-1.267,1.3-1.765,1.064-1.507,2.454-3.3,4.9-3.272,2.618.126,3.989,2.327,4.9,3.783a31.679,31.679,0,0,1,2.845,5.712,9.949,9.949,0,0,0,.481,1.122c.844,1.261,7.7.082,10.286-.347,5.8-.984,10.826-1.835,12.895,1.885,1.483,2.661.382,6.179-3.372,10.738a21.117,21.117,0,0,1-3.518,3.342,4.36,4.36,0,0,1,2.066,2.743h0c.782,3.165-1.9,6.337-7.953,9.439a21.169,21.169,0,0,1-6.368,2.308,24.624,24.624,0,0,1-3.57.322,4.351,4.351,0,0,1-.524,1.936c-1.064,1.986-3.279,2.932-6.617,2.7a51.116,51.116,0,0,1-9.365-1.532,22.372,22.372,0,0,0-5.912-.9c-2.922.24-5.174,2.617-7.817,5.7L109,86.854h0Z" transform="translate(-17.013 9.255)" fill="#f2f2f2"/>
    <path id="Path_4806" data-name="Path 4806" d="M127.068,339.947l-2.693-1.715-.651-3.159.651,3.159-3.139.366c-.05-.3-.22-.977-.478-2.043a463.3,463.3,0,0,1-9.262-51.588,534.418,534.418,0,0,1-4.2-59.7c-.292-20.113.645-35.34,1.4-47.578.568-9.231,1.256-18.02,1.933-26.582,1.8-22.875,3.5-44.483,2.233-68.4-.279-5.34-.865-16.456-7.255-28.285a59.817,59.817,0,0,0-15.178-18.1l3.958-5.057a66.354,66.354,0,0,1,16.791,20.05c7.085,13.115,7.724,25.227,8.031,31.046,1.284,24.344-.431,46.16-2.249,69.255-.67,8.531-1.359,17.282-1.923,26.475-.744,12.125-1.672,27.219-1.383,47.074a527.881,527.881,0,0,0,4.141,58.966,455.97,455.97,0,0,0,9.138,50.882c.738,3.071.893,3.714.136,4.931h0Z" transform="translate(-21.931 9.628)" fill="#f2f2f2"/>
    <path id="Path_4807" data-name="Path 4807" d="M86.8,56.211c-.261,0-.524-.006-.791-.025-5.41-.3-10.419-3.588-14.892-9.779-2.1-2.913-3.17-6.236-5.311-12.862a81.746,81.746,0,0,1-2.925-13.335c-.642-4.66-.561-6.608.347-8.329a9.754,9.754,0,0,1,4.476-4.155,3.7,3.7,0,0,1,.248-1.9c1.083-2.692,3.961-2.339,5.518-2.169a15.356,15.356,0,0,0,2.832.177,7.9,7.9,0,0,0,3.924-1.343A17.5,17.5,0,0,1,85.542.36a18.657,18.657,0,0,1,9.995.807c6.871,2.327,10.258,7.755,14.179,14.041a49.692,49.692,0,0,1,5.236,12.144c1.278,4.54,1.1,6.557.713,8.058-.782,3.083-2.627,4.849-7.314,8.745-4.895,4.079-7.352,6.122-9.461,7.364C93.979,54.4,90.9,56.211,86.8,56.211h0Z" transform="translate(-29.955 0)" fill="#f2f2f2"/>
  </g>
</svg>
