<svg id="Group_8363" data-name="Group 8363" xmlns="http://www.w3.org/2000/svg" width="864.67" height="644.317" viewBox="0 0 864.67 644.317">
  <path id="Path_8359" data-name="Path 8359" d="M932.56,686.88c-.953-28.439,12.06-56.7,37.376-66.387-6.032,29.065-.912,61.761,14.168,90.465,5.873,11.18,13.5,23.162,11.4,34.566-1.3,7.1-6.345,12.594-12.4,16.08s-13.106,5.219-20.071,6.918l-1.234,1.211C946.261,743.779,933.513,715.319,932.56,686.88Z" transform="translate(-896.402 -127.584)" fill="#f2f2f2"/>
  <path id="Path_8360" data-name="Path 8360" d="M969.448,621.024c-12.691,17.732-19.166,40.47-17.761,63.854a51.44,51.44,0,0,0,2.923,15.177,33.522,33.522,0,0,0,8.86,12.786c3.62,3.374,7.658,6.457,10.509,10.544a18.158,18.158,0,0,1,3,13.89c-1.063,5.683-4.181,10.353-7.406,14.791-3.58,4.927-7.386,9.977-8.223,16.443-.1.783-1.347.407-1.245-.375,1.457-11.25,11.207-17.792,14.753-27.962,1.655-4.746,1.8-10.225-1.216-15.154-2.64-4.31-6.8-7.492-10.492-10.881a35.979,35.979,0,0,1-9.089-12.242,48.261,48.261,0,0,1-3.486-15.089,103.582,103.582,0,0,1,2.692-33.339,96.834,96.834,0,0,1,15.208-33.375c.438-.613,1.408.323.973.931Z" transform="translate(-895.564 -127.584)" fill="#fff"/>
  <path id="Path_8361" data-name="Path 8361" d="M991.484,677.245A20.135,20.135,0,0,1,976,659.761c-.063-.81,1.192-.769,1.255.042a18.641,18.641,0,0,0,14.437,16.239.61.61,0,0,1-.2,1.2Z" transform="translate(-936.22 -127.584)" fill="#fff"/>
  <path id="Path_8362" data-name="Path 8362" d="M953.634,711.343a27.075,27.075,0,0,0,11.444-19c.1-.783,1.349-.407,1.245.375a28.153,28.153,0,0,1-11.952,19.742c-.626.426-1.359-.692-.737-1.116Z" transform="translate(-887.757 -127.584)" fill="#fff"/>
  <path id="Path_8363" data-name="Path 8363" d="M960.806,642.455a9.154,9.154,0,0,0,8.89-.612c.619-.435,1.352.684.737,1.116a10.249,10.249,0,0,1-9.83.7.761.761,0,0,1-.521-.789.545.545,0,0,1,.724-.414Z" transform="translate(-898.774 -127.584)" fill="#fff"/>
  <path id="Path_8364" data-name="Path 8364" d="M966.932,669.8c-.377.284-.755.568-1.131.862A101.685,101.685,0,0,0,951.845,683.5c-.334.358-.667.726-.989,1.094a110.234,110.234,0,0,0-22.335,39.962,115.861,115.861,0,0,0-4.123,18.395c-1.223,8.692-1.837,18.313-5.831,25.474a18.152,18.152,0,0,1-1.371,2.157l-46.1.783c-.113-.051-.225-.092-.339-.144l-1.827.116c.022-.331.053-.673.075-1,.012-.192.035-.385.047-.577.011-.128.023-.256.026-.374,0-.043.008-.085.013-.118,0-.117.018-.224.022-.331.165-1.912.34-3.824.536-5.737,0-.011,0-.011.007-.021,1.507-14.564,4.273-28.957,9.22-42.16.149-.4.3-.8.466-1.2a103.132,103.132,0,0,1,8.3-16.951,88.694,88.694,0,0,1,5.866-8.409,73.2,73.2,0,0,1,19.728-17.337c15.153-9.11,33.766-12.818,52.281-7.725C965.993,669.525,966.457,669.656,966.932,669.8Z" transform="translate(-803.89 -127.584)" fill="#f2f2f2"/>
  <path id="Path_8365" data-name="Path 8365" d="M966.466,670.39c-22,4.942-41.561,17.231-54.552,34.768a40.428,40.428,0,0,0-6.655,12.6,27.288,27.288,0,0,0,.046,14.5c1.144,4.606,2.835,9.258,2.867,13.907a14.416,14.416,0,0,1-5.8,11.732c-4.4,3.409-9.995,4.847-15.544,6.054-6.162,1.341-12.6,2.632-17.272,6.736-.566.5-1.437-.528-.872-1.024,8.134-7.141,20.729-5.886,30.051-10.988,4.35-2.381,7.816-6.2,8.148-11.55.291-4.679-1.449-9.478-2.647-14.137a29.571,29.571,0,0,1-.579-14.255,37.745,37.745,0,0,1,6.1-12.883,88.277,88.277,0,0,1,22.669-22.15,97.482,97.482,0,0,1,33.747-14.573c.76-.171,1.048,1.086.292,1.255Z" transform="translate(-803.435 -127.584)" fill="#fff"/>
  <path id="Path_8366" data-name="Path 8366" d="M924.161,699.191c-6.191-6.264-7.477-15.632-3.042-21.883.437-.616,1.521.175,1.083.792-4.155,5.857-2.917,14.5,2.871,20.356C925.683,699.072,924.767,699.8,924.161,699.191Z" transform="translate(-811.795 -127.584)" fill="#fff"/>
  <path id="Path_8367" data-name="Path 8367" d="M908.872,729.965a28.747,28.747,0,0,0,21.674-6.6c.568-.495,1.44.53.872,1.024a29.922,29.922,0,0,1-22.574,6.825c-.813-.076-.78-1.32.029-1.244Z" transform="translate(-807.882 -127.584)" fill="#fff"/>
  <path id="Path_8368" data-name="Path 8368" d="M884.713,678.481a11.3,11.3,0,0,0,8.226,4.964c.812.066.778,1.309-.029,1.244a12.656,12.656,0,0,1-9.11-5.472.634.634,0,0,1,.02-.88.658.658,0,0,1,.892.144Z" transform="translate(-745.195 -127.584)" fill="#fff"/>
  <path id="Path_8369" data-name="Path 8369" d="M745.442,654.584c-.1-.109.638-.2,2-.28v-45.72h66v3.68h29.71a13.155,13.155,0,0,1,13.14,13.14v18.91a13.149,13.149,0,0,1-13.14,13.14l-30.45.04-13.37.02h-.92l-13.38.02-37.37.05h-3.22C743.972,657.054,745.892,655.114,745.442,654.584Z" transform="translate(-568.689 -127.584)" fill="#3f3d56"/>
  <path id="Path_8370" data-name="Path 8370" d="M846.093,655.433c2.182,3.183,3.951,3.066,5.5,1.006a16.463,16.463,0,0,0,1.95-3.824c4.7-12.06,7.78-39.727,16.649-30.053,1.751,1.911,3.53,3.806,5.315,5.68,3.318,3.49,6.783,7.277,10.217,10.623,0,.01-.078-.362-.066-.354,1.693,1.657.418-12.673,1.088-16.7.142-.871.375-1.26.745-.912.029-.392.047-.782.044-1.178a16.457,16.457,0,0,0-.094-1.864c-.056-.569-.133-1.145-.241-1.725l-29-155.062a19.434,19.434,0,0,0-16.782-15.7,20.067,20.067,0,0,0-5.832.206l-5.278.987a19.164,19.164,0,0,0-5.933,2.168l-.01,0a19.42,19.42,0,0,0-9.553,20.454Z" transform="translate(-670.05 -127.584)" fill="#3f3d56"/>
  <path id="Path_8371" data-name="Path 8371" d="M452.574,616.176l13.614-6.511-18.7-56.9-20.093,9.61Z" transform="translate(-28.907 0)" fill="#a0616a"/>
  <path id="Path_8372" data-name="Path 8372" d="M664.715,734.586c.99.62,1.98,1.23,2.98,1.84,1.99,1.22,4,2.42,6.01,3.6,1.01.59,2.03,1.18,3.04,1.76v.03l.06.01.02.01,1.54.38,2.21-5.84,1.02-2.69,1.44-3.81,2.64-6.97,13.9-36.7-21.61-5.33-.81,3.31h-.01l-.4,1.64-7.55,30.62-1.54,6.26-.05.19-.93,3.74-.8,3.24-.89,3.62Z" transform="translate(-332.32 -127.584)" fill="#a0616a"/>
  <path id="Path_8373" data-name="Path 8373" d="M650.805,605.7c1.37,2.2,2.77,4.39,4.18,6.56q3.93,6.06,8.07,11.94c0,.01.01.01.02.02a28.238,28.238,0,0,0,5.3,3.87c.08.06.17.1.25.15a19.535,19.535,0,0,0,4.46,1.79l1.69.42c2.02.48,4.02.89,6.01,1.25,3.54.63,7.04,1.08,10.52,1.36.28.03.56.05.84.07,14.31,1.05,28.24-.64,42.78-3.41,7.18-1.36,14.51-2.99,22.1-4.68,2.48-.56,4.97-1.11,7.49-1.66.19-.04.39-.09.59-.13,3.6-.79,7.26-1.57,11.01-2.34,4.72-.97,9.59-1.91,14.65-2.8l-.36,7.13a53.662,53.662,0,0,1-3.38,16.03c-2.16,6.32-3.87,11.32-.26,21.73l1.74,5.04a17.213,17.213,0,0,0,1.77,15.23l.35.53-14.51,36.71-.94,2.38h7.43l9.14.01h15.49l22.35-44.84,1.07-2.14v-.11l-2.31-86.17c-.03-.76-.09-1.53-.19-2.29a26.2,26.2,0,0,0-9.97-17.64,25.23,25.23,0,0,0-18.79-5.14l-7.65.99-15.63,2.02-11.01,1.43-.22.03-32.47,4.2-2.33-9.5-.43-.16-13.67-5.01-47.28-17.33-.12-.04-3.11-1.14-.37.6c-.11.18-.22.36-.32.54a92.671,92.671,0,0,0-7.47,17.34,272.2,272.2,0,0,0-7.85,29.97q-.135.66-.24,1.2l-.03.11c-.03.17-.05.28-.06.31C648.045,594.674,648.805,600.214,650.805,605.7Z" transform="translate(-447.322 -127.584)" fill="#2f2e41"/>
  <path id="Path_8374" data-name="Path 8374" d="M606.37,573.948c.15-.64.34-1.29.54-1.92a136.825,136.825,0,0,1,5.54-14.02c2.36-5.2,5.19-10.77,8.56-16.8q2.445-4.38,5.26-9.11,1.41-2.37,2.93-4.83a2.527,2.527,0,0,1,.13-.22l.29-.48,46.78,6.26,17.42,2.33,1.04,8.68.25,2.15c.01,0,.01,0,0,.01l.7,5.86v.01l.93,7.74.08-.01,25.85-3.35,26.64-3.45,14.31-1.85a25.215,25.215,0,0,1,18.79,5.14,26.211,26.211,0,0,1,9.97,17.64c.09.7.15,1.42.18,2.13l13.5,31.99a206.4,206.4,0,0,1,15.26,60.04l9.9,31.65-1.41.13-20.98,1.95-5.54.52-12.2-17.81c-1.39-2.03-2.71-4.12-3.94-6.26a95.069,95.069,0,0,1-5.39-10.84l-26.39-62.8q-3.06.525-6.06,1-13.875,2.25-26.64,3.67c-27.67,3.09-51.63,3.33-72.96.71q-8.985-1.095-17.37-2.88-3.075-.645-6.07-1.39c-.47-.11-.93-.22-1.39-.34a25.519,25.519,0,0,1-17.85-16.68,26.038,26.038,0,0,1-.66-14.57Z" transform="translate(-404.882 -127.584)" fill="#2f2e41"/>
  <path id="Path_8375" data-name="Path 8375" d="M564.938,734.468l14.73-7.06,2.31-1.11,3.69,9.06,25.76,5.67a6.112,6.112,0,0,1,1,11.63l-25.17,10.27-7.99-7.19,1.96,9.65-9.48,3.87-10.39-33.07Z" transform="translate(-145.62 -127.584)" fill="#2f2e41"/>
  <path id="Path_8376" data-name="Path 8376" d="M536.821,592.93l-.94,2.38h.94Z" transform="translate(-208.027 0)" fill="#2f2e41"/>
  <path id="Path_8377" data-name="Path 8377" d="M353.7,547.444c0-5.36,1.8-9.71,4.01-9.72H524.2c2.22.01,4.01,4.36,4.02,9.72V768.087a2,2,0,0,0,1.809,1.994q2.425.233,4.851.433c.04,0,.08.01.12.01.88.08,1.76.14,2.64.21h.01q.679-1.255,1.342-2.533a2.012,2.012,0,0,0,.228-.929V534.834c0-1.48-.06-2.97-.16-4.44a56.878,56.878,0,0,0-.75-6.02c-1.69-9.29-5.51-15.58-9.85-15.6h-175a4.681,4.681,0,0,0-1.84.39,7.173,7.173,0,0,0-2.27,1.59,14.068,14.068,0,0,0-2.23,3.05c-2.14,3.77-3.67,9.39-4.21,15.93,0,.06-.01.12-.01.18-.14,1.62-.21,3.27-.2,4.92l-.14,21.43-.09,12.78-.27,40.1-.1,14.24-.44,146.2h0a2,2,0,0,0,2,2h8.04a2,2,0,0,0,2-2Z" transform="translate(151.096 -127.584)" fill="#3f3d56"/>
  <path id="Path_8378" data-name="Path 8378" d="M216.883,321.74,228.464,372.7l7.4,8.106H241.2l-22-92.646-1.088,15.739v.011Z" transform="translate(406.589 0)" fill="#3f3d56"/>
  <path id="Path_8379" data-name="Path 8379" d="M372.452,501.4l67.94-.43,6.03-.04,4.3-.03,5.01-.03h.04a2.765,2.765,0,0,1,1.94.8l8.46,8.46a2.184,2.184,0,0,1,.45.64.98.98,0,0,1,.13.22,2.824,2.824,0,0,1-2.54,3.94H376.2a2.8,2.8,0,0,1-2.52-1.6l-.69-1.5-1.42-3.05-1.61-3.44a2.741,2.741,0,0,1-.26-1.17,2.785,2.785,0,0,1,2.75-2.77Z" transform="translate(195.286 -127.584)" fill="#3f3d56"/>
  <path id="Path_8380" data-name="Path 8380" d="M369.7,511.825l.695,1.505a2.8,2.8,0,0,0,2.513,1.6h88.013a2.819,2.819,0,0,0,2.536-3.938.841.841,0,0,0-.127-.22Z" transform="translate(198.575 -127.584)" opacity="0.17"/>
  <path id="Path_8381" data-name="Path 8381" d="M216.883,303.894v.011l18.842,76.9h4.25l-22-92.646Z" transform="translate(407.817 0)" opacity="0.17"/>
  <path id="Path_8382" data-name="Path 8382" d="M375.213,445.568l26.67-202.91a2.892,2.892,0,0,1,1.1-1.92l18.36-22.98,1.65-1.27a2.929,2.929,0,0,1,2.14-.57l2.76.37a2.894,2.894,0,0,1,2.5,3.24h0l-27.64,210.24v.01l-1.69,12.86-2.01,15.27v.02l-3.12,23.76a2.832,2.832,0,0,1-1.25,2.02,2.873,2.873,0,0,1-2.33.42l-1.75-.44a2.939,2.939,0,0,1-1.66-1.14l-.78-1.11-.36-.52-12.08-33.3A2.876,2.876,0,0,1,375.213,445.568Z" transform="translate(226.365 -127.584)" fill="#3f3d56"/>
  <path id="Path_8383" data-name="Path 8383" d="M408.74,217.759,375.192,480.923l.364.515.777,1.107a2.929,2.929,0,0,0,1.66,1.141l1.753.441a2.906,2.906,0,0,0,3.579-2.438l34.455-262.157a2.9,2.9,0,0,0-2.493-3.248l-2.767-.364a2.855,2.855,0,0,0-2.131.573Z" transform="translate(238.972 -127.584)" opacity="0.17"/>
  <path id="Path_8384" data-name="Path 8384" d="M256.914,97.7l-17.8,25.411-21.16,161,11.472,22.759Z" transform="translate(389.81 0)" fill="#a7d325"/>
  <path id="Path_8385" data-name="Path 8385" d="M622.284,642.325l12.209.229L600.559,524.675l-12.209,3.771Z" transform="translate(-358.168 0)" fill="#3f3d56"/>
  <path id="Path_8386" data-name="Path 8386" d="M801.787,770.134l12.2-.23,33.48-112.39.46-1.48-7.83-2.42c-1.55.03-3.16.05-4.82.07l-1.19,3.85Z" transform="translate(-617.744 -127.584)" fill="#3f3d56"/>
  <path id="Path_8387" data-name="Path 8387" d="M688.287,723.4l15.434,5.348,2.422.837-3.753,9.034,14.315,22.154a6.112,6.112,0,0,1-7.473,8.968L684.122,759.33,683.5,748.6l-5.4,8.236-9.459-3.92,15.886-30.809Z" transform="translate(-354.364 -127.584)" fill="#2f2e41"/>
  <path id="Path_8388" data-name="Path 8388" d="M652.028,392.53a10.962,10.962,0,0,1-16.393,3.716L603.18,417.791l-.062-20.243,30.83-17.356a11.022,11.022,0,0,1,18.081,12.338Z" transform="translate(-224.426 -127.584)" fill="#a0616a"/>
  <path id="Path_8389" data-name="Path 8389" d="M817.3,401.886,802.16,384.659l-61.656,36.6-81.731-7.485a27.638,27.638,0,0,0-30.04,30.069h0A27.667,27.667,0,0,0,658.8,468.819l92.049-8.52Z" transform="translate(-413.948 -127.584)" fill="#e6e6e6"/>
  <path id="Path_8390" data-name="Path 8390" d="M757.53,402.152l.142-.178,38.63-3.812,26.1,45.976c22.436,27.429,6.133,46.344,5.157,49.157l7.788,35.908L833.6,541.22l-.872,3.57-88.9,46.45,18.271-60.869-17.84-55.509a78.2,78.2,0,0,1,13.265-72.709Z" transform="translate(-543.872 -127.584)" fill="#e6e6e6"/>
  <path id="Path_8391" data-name="Path 8391" d="M784.987,361.694c-.02.49-.03.98-.03,1.46a33.569,33.569,0,0,0,43.98,31.86l6.17-2.01c.05-.02.11-.03.16-.05l10.17-3.32a6.948,6.948,0,0,0-.02-1.29c15.17-6.48-5.8-27.77-11.01-43.76-.81-2.49,27.04-.63,25.72-2.76.29-.15.58-.3.85-.45a41.215,41.215,0,0,0-45.52-17.74c-.22.05-.45.12-.67.18-19.76.49-30.14,14.26-30.14,32.14A49.039,49.039,0,0,0,784.987,361.694Z" transform="translate(-613.654 -127.584)" fill="#2f2e41"/>
  <path id="Path_8392" data-name="Path 8392" d="M782.278,368.734a32.217,32.217,0,0,0,40.61,20.63q1.38-.45,2.7-1.02a32.2,32.2,0,0,0,17.93-39.58,31.879,31.879,0,0,0-3.22-6.94,32.206,32.206,0,0,0-58.02,26.91Z" transform="translate(-593.826 -127.584)" fill="#a0616a"/>
  <path id="Path_8393" data-name="Path 8393" d="M822.524,393c.05-.02.11-.03.16-.05l10.17-3.32a6.949,6.949,0,0,0-.02-1.29c-.3-3.348-2.653-6.855-5.808-10.641a19.489,19.489,0,0,1,8.568-30.949l.26-.091a90.173,90.173,0,0,0,11.69-4.84c.29-.15.58-.3.85-.45,2.54-1.4,4.38-2.8,5.19-4.14a29.747,29.747,0,0,0-37.51-19.06l-5.9,1.92a29.635,29.635,0,0,0-17.2,14.64c-4.16,2.98-7.44,7.36-10.01,12.53C770.044,373.2,794.984,401.844,822.524,393Z" transform="translate(-601.071 -127.584)" fill="#2f2e41"/>
  <path id="Path_8394" data-name="Path 8394" d="M740.816,549.884a8.7,8.7,0,0,0,5.579,8.12,8.471,8.471,0,0,0,2.431.54c.22.02.45.03.67.03h16.79v81.46c.25.33.51.66.77.99,1.44,1.84,2.9,3.68,4.38,5.49.32.4.64.79.95,1.18.49.59.97,1.18,1.45,1.76.17.2.33.39.49.59.82.98,1.64,1.96,2.48,2.94v.01c.01.01.01.01.01.02l.42.48c.67.79,1.34,1.59,2.03,2.38a8.36,8.36,0,0,0,2.44-2.05,8.077,8.077,0,0,0,1.06-1.64c.01-.01.01-.02.02-.04a.5.5,0,0,0,.03-.07,8.543,8.543,0,0,0,.84-3.75v-89.75H821.3a8.385,8.385,0,0,0,3.24-.63,8.65,8.65,0,0,0,5.22-6.08v-.01a8.559,8.559,0,0,0-.7-5.86c.01-.01.01-.01,0-.01a7.944,7.944,0,0,0-1.53-2.13v-.01c0-.01,0-.01-.01-.02a8.708,8.708,0,0,0-6.22-2.62H749.5A8.685,8.685,0,0,0,740.816,549.884Z" transform="translate(-538.833 -127.584)" fill="#3f3d56"/>
  <path id="Path_8395" data-name="Path 8395" d="M857.53,381.756A27.215,27.215,0,0,1,889.284,403.5h0a27.22,27.22,0,0,1-16.719,30.3l8.182,43.752-17.075,3.193-18.094-96.759Z" transform="translate(-703.357 -127.584)" fill="#3f3d56"/>
  <ellipse id="Ellipse_2084" data-name="Ellipse 2084" cx="14" cy="14" rx="14" ry="14" transform="translate(164.754 194)" fill="#2f2e41"/>
  <path id="Path_8396" data-name="Path 8396" d="M872.016,375.782c6.074,2.027,12.569,2.372,18.972,2.482,18.63.322,37.732-1.31,54.688-9.036S977.229,346.822,981,328.575c1.625-7.865,1.434-16.625,6.39-22.944,5.882-7.5,17.7-8.522,25.937-3.722s13.042,14.142,14.44,23.57l3.317,5.392c-.078,3.472-3.834,5.781-7.292,6.106s-6.933-.627-10.4-.37c-7.589.564-13.777,7.056-15.989,14.338s-1.147,15.158.746,22.529,4.6,14.562,5.678,22.095.347,15.709-4.085,21.9c-3.327,4.643-8.4,7.722-13.55,10.184a91.423,91.423,0,0,1-128.842-63.516C860.256,369.842,865.946,373.756,872.016,375.782Z" transform="translate(-856.466 -127.584)" fill="#2f2e41"/>
  <path id="Path_8397" data-name="Path 8397" d="M717.838,671.826h28.515a6.514,6.514,0,0,0,6.445-5.6,144.982,144.982,0,0,0,0-39.047,6.515,6.515,0,0,0-6.335-5.6c-8.972-4.021-18.633-4.021-28.722,0a6.439,6.439,0,0,0-4.9,2.363,6.587,6.587,0,0,0-1.359,5.491,87.659,87.659,0,0,1,0,34.539,6.587,6.587,0,0,0,1.359,5.491A6.437,6.437,0,0,0,717.838,671.826Z" transform="translate(-433.497 -127.584)" fill="#a7d325"/>
  <path id="Path_8398" data-name="Path 8398" d="M720.642,636.467h24a1.5,1.5,0,0,0,0-3h-24a1.5,1.5,0,0,0,0,3Z" transform="translate(-433.314 -127.584)" fill="#fff"/>
  <path id="Path_8399" data-name="Path 8399" d="M720.642,648.467h24a1.5,1.5,0,0,0,0-3h-24a1.5,1.5,0,0,0,0,3Z" transform="translate(-433.314 -127.584)" fill="#fff"/>
  <path id="Path_8400" data-name="Path 8400" d="M720.642,660.467h24a1.5,1.5,0,0,0,0-3h-24a1.5,1.5,0,0,0,0,3Z" transform="translate(-433.314 -127.584)" fill="#fff"/>
  <path id="Path_8401" data-name="Path 8401" d="M563.216,353.983v0a.94.94,0,0,0-1.025-.819l-154.281.411a.938.938,0,0,0-1.018.822v0a.94.94,0,0,0,1.025.819l154.281-.411a.938.938,0,0,0,1.018-.822Z" transform="translate(61.861 -127.584)" fill="#3f3d56"/>
  <path id="Path_8402" data-name="Path 8402" d="M418.332,449l6.551,7.205a2.074,2.074,0,0,0,2.22.288,6.6,6.6,0,0,0,2.8-1.922,95.875,95.875,0,0,1,15.672-14.248,6.6,6.6,0,0,0,2.179-2.609,2.1,2.1,0,0,0-.049-2.207c-.065-3.942-2.286-6.384-6.6-7.261-.757-.788-2.466-.488-4,.707a159.154,159.154,0,0,0-17.717,16.108C418.044,446.492,417.588,448.185,418.332,449Z" transform="translate(165.947 -127.584)" fill="#a7d325"/>
  <path id="Path_8403" data-name="Path 8403" d="M423.979,433.494l5.514,6.064c.19.209.649.1,1.025-.24s.526-.788.336-1l-5.514-6.064c-.19-.209-.649-.1-1.025.24S423.789,433.285,423.979,433.494Z" transform="translate(177.137 -127.584)" fill="#fff"/>
  <path id="Path_8404" data-name="Path 8404" d="M429.423,438.445l5.514,6.064c.19.209.649.1,1.025-.24s.526-.788.336-1l-5.514-6.064c-.19-.209-.649-.1-1.025.24S429.232,438.235,429.423,438.445Z" transform="translate(166.249 -127.584)" fill="#fff"/>
  <path id="Path_8405" data-name="Path 8405" d="M434.868,443.395l5.514,6.064c.19.209.649.1,1.025-.24s.526-.788.336-1l-5.514-6.064c-.19-.209-.649-.1-1.025.24S434.677,443.186,434.868,443.395Z" transform="translate(155.359 -127.584)" fill="#fff"/>
  <path id="Path_8406" data-name="Path 8406" d="M167.3,770.711a1.186,1.186,0,0,0,1.19,1.19h862.29a1.19,1.19,0,0,0,0-2.38H168.49a1.187,1.187,0,0,0-1.19,1.19Z" transform="translate(-167.3 -127.584)" fill="#ccc"/>
  <path id="Path_8407" data-name="Path 8407" d="M761.613,635.375a10.962,10.962,0,0,1-2.737-16.585l-19.582-33.676,20.211,1.139,15.5,31.8a11.021,11.021,0,0,1-13.389,17.317Z" transform="translate(-485.626 -127.584)" fill="#a0616a"/>
  <path id="Path_8408" data-name="Path 8408" d="M803.216,610.616l18.095-14.094L788.43,532.8l12.321-81.144a27.638,27.638,0,0,0-28.234-31.771h0A27.667,27.667,0,0,0,745.8,448.422l3.044,92.393Z" transform="translate(-535.131 -127.584)" fill="#e6e6e6"/>
  <path id="Path_8409" data-name="Path 8409" d="M545.861,409.841h61.1a6.183,6.183,0,0,0,6.176-6.176v-80.9a6.183,6.183,0,0,0-6.176-6.176h-61.1a6.183,6.183,0,0,0-6.176,6.176v80.9a6.183,6.183,0,0,0,6.176,6.176Z" transform="translate(-120.853 -127.584)" fill="#e6e6e6"/>
  <path id="Path_8410" data-name="Path 8410" d="M550.156,404.693h52.511a5.49,5.49,0,0,0,5.484-5.484V327.215a5.49,5.49,0,0,0-5.484-5.484H550.156a5.49,5.49,0,0,0-5.484,5.484v71.994a5.49,5.49,0,0,0,5.484,5.484Z" transform="translate(-120.853 -127.584)" fill="#fff"/>
  <path id="Path_8411" data-name="Path 8411" d="M555.4,335.413h42.034a1.371,1.371,0,0,0,0-2.742H555.4a1.371,1.371,0,0,0,0,2.742Z" transform="translate(-120.854 -127.584)" fill="#a7d325"/>
  <path id="Path_8412" data-name="Path 8412" d="M555.4,340.83h42.034a1.371,1.371,0,1,0,0-2.742H555.4a1.371,1.371,0,0,0,0,2.742Z" transform="translate(-120.854 -127.584)" fill="#a7d325"/>
  <path id="Path_8413" data-name="Path 8413" d="M555.4,346.247h18.22a1.371,1.371,0,1,0,0-2.742H555.4a1.371,1.371,0,1,0,0,2.742Z" transform="translate(-97.041 -127.584)" fill="#a7d325"/>
  <path id="Path_8417" data-name="Path 8417" d="M555.4,379.772h42.034a1.371,1.371,0,0,0,0-2.742H555.4a1.371,1.371,0,0,0,0,2.742Z" transform="translate(-120.854 -127.584)" fill="#e4e4e4"/>
  <path id="Path_8418" data-name="Path 8418" d="M555.4,385.189h42.034a1.371,1.371,0,1,0,0-2.742H555.4a1.371,1.371,0,0,0,0,2.742Z" transform="translate(-120.854 -127.584)" fill="#e4e4e4"/>
  <path id="Path_8419" data-name="Path 8419" d="M555.4,390.606h18.22a1.371,1.371,0,1,0,0-2.742H555.4a1.371,1.371,0,1,0,0,2.742Z" transform="translate(-97.041 -127.584)" fill="#e4e4e4"/>
  <path id="Path_8420" data-name="Path 8420" d="M396.421,174.459,232.506,34.256h-.26v2.058h-.5L395.082,176.023Z" transform="translate(236.508 0)" fill="#2f2e41"/>
  <path id="Path_8421" data-name="Path 8421" d="M436.844,463.055h75.368a4.446,4.446,0,0,1,4.441,4.441V514.42a4.446,4.446,0,0,1-4.441,4.441H436.844a4.446,4.446,0,0,1-4.441-4.441V467.5A4.446,4.446,0,0,1,436.844,463.055Z" transform="translate(82.914 -127.584)" fill="#fff"/>
  <path id="Path_8422" data-name="Path 8422" d="M436.844,463.055h75.368a4.446,4.446,0,0,1,4.441,4.441V514.42a4.446,4.446,0,0,1-4.441,4.441H436.844a4.446,4.446,0,0,1-4.441-4.441V467.5A4.446,4.446,0,0,1,436.844,463.055Zm-1.458,33.706a18.258,18.258,0,0,0,17.95,18.186c7.647.1-4.231.138,4.992.138,21.091,0,43.083-.2,51.288-.332a4.138,4.138,0,0,0,4.052-4.121V467.5a1.462,1.462,0,0,0-1.457-1.461H436.847a1.462,1.462,0,0,0-1.461,1.457Z" transform="translate(82.914 -127.584)" fill="#cacaca"/>
  <path id="Path_8423" data-name="Path 8423" d="M446.7,493h57.423a2.468,2.468,0,0,0,2.32-1.636l8.868-24.881a2.463,2.463,0,0,0-2.316-3.29l-77.013-.137h0a2.463,2.463,0,0,0-2.264,3.433l.134-.057-.134.057,10.722,25.018A2.46,2.46,0,0,0,446.7,493Z" transform="translate(83 -127.584)" fill="#cacaca"/>
  <ellipse id="Ellipse_2085" data-name="Ellipse 2085" cx="6.136" cy="6.136" rx="6.136" ry="6.136" transform="translate(551.35 359.283)" fill="#3f3d56"/>
  <path id="Path_8424" data-name="Path 8424" d="M176.75,739.994c1.2,8.84,7.21,16.82,14.94,22.03a39.486,39.486,0,0,0,5.81,3.25,50.536,50.536,0,0,0,6.87,2.52c10.3,3.01,21.43,3.14,32.26,3.2l32.84.21c8.63.05,17.54.05,25.51-3.26a3.662,3.662,0,0,0,.35-.15c7.83-3.38,14.5-10.81,14.31-19.31a17.42,17.42,0,0,0-2.46-8.49,24.861,24.861,0,0,0-3.64-4.76c-4.34-4.5-10.36-8.03-16-10.87-9.3-4.67-19.81-10.73-22.53-20.33a17.23,17.23,0,0,1-.58-3.09c-.64-6.6,2.57-12.67,6.66-18.1.4-.54.82-1.08,1.25-1.62.92-1.15,1.87-2.28,2.81-3.36.4-.46.8-.93,1.21-1.4,3.78-4.38,7.59-9.06,9.58-14.29a20.674,20.674,0,0,0,1.41-6.86c.22-8.49-9.27-17.04-16.45-13.03q-5.28-.51-10.56-1.05c-4.32-.43-8.62-.86-12.93-1.3h-.01c-.97-.08-1.92-.18-2.87-.28q-13.455-1.335-26.89-2.69c-3.98-.39-8.66-.54-11.25,2.52-2.82,3.34-1.36,8.62,1.43,11.99s6.66,5.74,9.28,9.22c3.39,4.5,4.18,10.19,3.21,15.77a28.307,28.307,0,0,1-1.26,4.76,31.828,31.828,0,0,1-4.03,7.77c-5.88,8.24-14.59,13.92-22.32,20.45s-14.98,14.84-16.04,24.9c-.03.29-.06.59-.07.89A22.9,22.9,0,0,0,176.75,739.994Z" transform="translate(545.793 -127.584)" fill="#a7d325" opacity="0.78"/>
  <path id="Path_8425" data-name="Path 8425" d="M214.573,648.428a113.694,113.694,0,0,0,19.733-26.118,115.962,115.962,0,0,0,11.556-30.473,111.393,111.393,0,0,0,2.389-32.968,115.435,115.435,0,0,0-23.913-61.813q-1.268-1.626-2.6-3.2c-.987-1.175-2.665.517-1.685,1.685a111.539,111.539,0,0,1-7.17,151.205c-1.094,1.078.591,2.763,1.685,1.685Z" transform="translate(570.858 -127.584)" fill="#3f3d56" opacity="0.66"/>
  <path id="Path_8426" data-name="Path 8426" d="M238.78,499.08a28.891,28.891,0,0,1-2.83-1.234c-.047.072-.092.145-.139.216Z" transform="translate(557.378 -127.584)" fill="#e6e6e6"/>
  <path id="Path_8427" data-name="Path 8427" d="M231.421,478.064a22.98,22.98,0,0,0,2.09,6.28,30.109,30.109,0,0,0,12.55,13.02c.3.16.61.33.92.48.37-.58.75-1.16,1.11-1.74a40.338,40.338,0,0,0,5.58-12.44c1.16-5.21.53-11.06-2.81-15.23s-9.69-6.04-14.3-3.34a10.063,10.063,0,0,0-3.3,3.19c.46.57.92,1.13,1.38,1.7a1.731,1.731,0,0,0,.13.15c.4.5.81.99,1.21,1.49,1.67,2.05,3.33,4.11,5,6.15a31.634,31.634,0,0,1-7.14.49l-.58-.03C232.651,478.194,232.031,478.144,231.421,478.064Z" transform="translate(546.342 -127.584)" fill="#3f3d56" opacity="0.66"/>
  <path id="Path_8428" data-name="Path 8428" d="M196.117,519.074l.64,8.34.17,2.26c.18-.09.37-.18.55-.27a48.8,48.8,0,0,0,25.47-31.19,47.409,47.409,0,0,0,1.25-7.09c-3.24-.5-6.49-1.01-9.73-1.51a31.939,31.939,0,0,1,9.66-8.37,48.271,48.271,0,0,0-8.75-23.15c-.84,13.98-15.48,22.87-20.84,35.8a29.082,29.082,0,0,0,1.58,25.18Z" transform="translate(615.376 -127.584)" fill="#3f3d56" opacity="0.66"/>
  <path id="Path_8429" data-name="Path 8429" d="M167.3,592.324c.78.04,1.56.06,2.33.05a48.867,48.867,0,0,0,35.44-15.55,47.463,47.463,0,0,0,8.73-13.67l-.2-.03c-3.24-.5-6.49-1.01-9.73-1.51a31.815,31.815,0,0,1,13.25-10.1,47.66,47.66,0,0,0,.16-13.65c-7.32,11.93-24.43,12.89-35.24,21.77a29.147,29.147,0,0,0-9.95,16.83,27.42,27.42,0,0,0-.51,4.94c-.01.4-.01.79,0,1.18l-.24.54Z" transform="translate(646.97 -127.584)" fill="#3f3d56" opacity="0.66"/>
  <path id="Path_8430" data-name="Path 8430" d="M227.707,606.134c2.07,2.54,4.14,5.1,6.21,7.64a31.7,31.7,0,0,1-7.72.46,48.875,48.875,0,0,0,12.77,21.67c.57.56,1.16,1.11,1.76,1.63.12.11.25.22.37.33l.54-1.53.01-.01,3.06-8.47a28.941,28.941,0,0,0,7.75-14.21v-.02a27.914,27.914,0,0,0,.49-9.6c-1.71-13.89-13.45-26.38-10.53-40.07a48.471,48.471,0,0,0-14.5,19.67c1.67,2.05,3.33,4.11,5,6.15a31.628,31.628,0,0,1-7.14.49,46.76,46.76,0,0,0-1.36,10.34c-.01.5-.01.99,0,1.49,1.05,1.3,2.11,2.59,3.16,3.89a1.727,1.727,0,0,0,.13.15Z" transform="translate(554.406 -127.584)" fill="#3f3d56" opacity="0.66"/>
  <path id="Path_8431" data-name="Path 8431" d="M554.861,195.841h61.1a6.183,6.183,0,0,0,6.176-6.176v-55.9a6.183,6.183,0,0,0-6.176-6.176h-61.1a6.183,6.183,0,0,0-6.176,6.176v55.9a6.183,6.183,0,0,0,6.176,6.177Z" transform="translate(-138.853 -127.584)" fill="#e6e6e6"/>
  <path id="Path_8432" data-name="Path 8432" d="M559.156,190.693h52.511a5.49,5.49,0,0,0,5.484-5.484V138.215a5.49,5.49,0,0,0-5.484-5.484H559.156a5.49,5.49,0,0,0-5.484,5.484v46.994A5.49,5.49,0,0,0,559.156,190.693Z" transform="translate(-138.853 -127.584)" fill="#fff"/>
  <path id="Path_8433" data-name="Path 8433" d="M564.4,146.413h42.034a1.371,1.371,0,0,0,0-2.742H564.4a1.371,1.371,0,0,0,0,2.742Z" transform="translate(-138.854 -127.584)" fill="#a7d325"/>
  <path id="Path_8434" data-name="Path 8434" d="M564.4,151.83h42.034a1.371,1.371,0,1,0,0-2.742H564.4a1.371,1.371,0,0,0,0,2.742Z" transform="translate(-138.854 -127.584)" fill="#a7d325"/>
  <path id="Path_8435" data-name="Path 8435" d="M564.4,157.247h18.22a1.371,1.371,0,1,0,0-2.742H564.4a1.371,1.371,0,1,0,0,2.742Z" transform="translate(-115.041 -127.584)" fill="#a7d325"/>
  <path id="Path_8436" data-name="Path 8436" d="M564.4,168.592h42.034a1.371,1.371,0,0,0,0-2.742H564.4a1.371,1.371,0,0,0,0,2.742Z" transform="translate(-138.854 -127.584)" fill="#e4e4e4"/>
  <path id="Path_8437" data-name="Path 8437" d="M564.4,174.009h42.034a1.371,1.371,0,0,0,0-2.742H564.4a1.371,1.371,0,0,0,0,2.742Z" transform="translate(-138.854 -127.584)" fill="#e4e4e4"/>
  <path id="Path_8438" data-name="Path 8438" d="M564.4,179.426h18.22a1.371,1.371,0,1,0,0-2.742H564.4a1.371,1.371,0,1,0,0,2.742Z" transform="translate(-115.041 -127.584)" fill="#e4e4e4"/>
</svg>
