<svg xmlns="http://www.w3.org/2000/svg" xmlns:xlink="http://www.w3.org/1999/xlink" width="229" height="82.456" viewBox="0 0 229 82.456">
  <defs>
    <linearGradient id="linear-gradient" x1="0.9" y1="0.554" x2="0" y2="0.5" gradientUnits="objectBoundingBox">
      <stop offset="0" stop-color="#64b167"/>
      <stop offset="1" stop-color="#717171"/>
    </linearGradient>
    <filter id="Path_8350" x="0" y="0" width="223.679" height="82.456" filterUnits="userSpaceOnUse">
      <feOffset dy="3" input="SourceAlpha"/>
      <feGaussianBlur stdDeviation="5" result="blur"/>
      <feFlood flood-opacity="0.102"/>
      <feComposite operator="in" in2="blur"/>
      <feComposite in="SourceGraphic"/>
    </filter>
  </defs>
  <g id="Group_8327" data-name="Group 8327" transform="translate(-78 -276.605)">
    <g id="Group_8198" data-name="Group 8198" transform="translate(-85 15.224)">
      <g id="Group_8196" data-name="Group 8196" transform="translate(178 271.776)">
        <g transform="matrix(1, 0, 0, 1, -15, -10.39)" filter="url(#Path_8350)">
          <path id="Path_8350-2" data-name="Path 8350" d="M27-.075,183.563-1.224c14.912,0,8.932,16.909,8.932,30.023s5.98,22.433-8.932,22.433L27,50.6C12.088,50.6,0,39.253,0,25.261S12.088-.075,27-.075Z" transform="translate(15 13.22)" fill="url(#linear-gradient)"/>
        </g>
        <text id="Lead_Box" data-name="Lead Box" transform="translate(67 33)" fill="#fff" font-size="15" font-family="SamsungSharpSans-Medium, Samsung Sharp Sans" font-weight="500" letter-spacing="0.01em"><tspan x="0" y="0">Lead Box</tspan></text>
      </g>
      <g id="Group_8197" data-name="Group 8197" transform="matrix(-0.999, 0.035, -0.035, -0.999, 368.904, 305.547)">
        <path id="Path_8255" data-name="Path 8255" d="M5.855,0,0,5.826" transform="translate(0)" fill="none"/>
        <path id="Path_8254" data-name="Path 8254" d="M0,0,5.8,5.871" transform="translate(0.018 5.805)" fill="none"/>
      </g>
    </g>
    <g id="Ellipse_2081" data-name="Ellipse 2081" transform="translate(256 289)" fill="#66a868" stroke="#fff" stroke-width="2">
      <circle cx="25.5" cy="25.5" r="25.5" stroke="none"/>
      <circle cx="25.5" cy="25.5" r="24.5" fill="none"/>
    </g>
    <path id="Icon_material-next-week" data-name="Icon material-next-week" d="M18.357,8.019H14.944V6.26a1.747,1.747,0,0,0-.5-1.241,1.644,1.644,0,0,0-1.2-.519H9.825A1.739,1.739,0,0,0,8.119,6.26v1.76H4.706A1.739,1.739,0,0,0,3,9.779v9.678a1.739,1.739,0,0,0,1.706,1.76H18.357a1.739,1.739,0,0,0,1.706-1.76V9.779A1.739,1.739,0,0,0,18.357,8.019ZM9.825,6.26h3.413v1.76H9.825Zm.853,11.877-.853-.88,2.56-2.639-2.56-2.639.853-.88,3.413,3.519Z" transform="translate(269.969 301.642)" fill="#fff"/>
  </g>
</svg>
