<svg xmlns="http://www.w3.org/2000/svg" width="136.884" height="95.819" viewBox="0 0 136.884 95.819">
  <path id="Icon_awesome-users" data-name="Icon awesome-users" d="M20.533,43.315A13.688,13.688,0,1,0,6.844,29.627,13.7,13.7,0,0,0,20.533,43.315Zm95.819,0a13.688,13.688,0,1,0-13.688-13.688A13.7,13.7,0,0,0,116.351,43.315Zm6.844,6.844H109.507a13.648,13.648,0,0,0-9.646,3.978,31.285,31.285,0,0,1,16.062,23.4H130.04a6.837,6.837,0,0,0,6.844-6.844V63.848A13.7,13.7,0,0,0,123.2,50.159Zm-54.754,0A23.955,23.955,0,1,0,44.487,26.2,23.943,23.943,0,0,0,68.442,50.159ZM84.868,57H83.093a33.073,33.073,0,0,1-29.3,0H52.016A24.645,24.645,0,0,0,27.377,81.643V87.8A10.269,10.269,0,0,0,37.643,98.069h61.6A10.269,10.269,0,0,0,109.507,87.8v-6.16A24.645,24.645,0,0,0,84.868,57ZM37.023,54.138a13.648,13.648,0,0,0-9.646-3.978H13.688A13.7,13.7,0,0,0,0,63.848v6.844a6.837,6.837,0,0,0,6.844,6.844H20.939A31.364,31.364,0,0,1,37.023,54.138Z" transform="translate(0 -2.25)" fill="#fff" opacity="0.35"/>
</svg>
