<svg width="112" height="112" viewBox="0 0 112 112" fill="#badc54" xmlns="http://www.w3.org/2000/svg">
<circle cx="56" cy="56" r="55" fill="#badc54" stroke="#fff" stroke-width="2"/>
<path d="M36.625 36C35.1332 36 33.7024 36.5926 32.6475 37.6475C31.5926 38.7024 31 40.1332 31 41.625V47.875C31 49.3668 31.5926 50.7976 32.6475 51.8525C33.7024 52.9074 35.1332 53.5 36.625 53.5H42.875C44.3668 53.5 45.7976 52.9074 46.8525 51.8525C47.9074 50.7976 48.5 49.3668 48.5 47.875V41.625C48.5 40.1332 47.9074 38.7024 46.8525 37.6475C45.7976 36.5926 44.3668 36 42.875 36H36.625ZM34.75 41.625C34.75 41.1277 34.9475 40.6508 35.2992 40.2992C35.6508 39.9475 36.1277 39.75 36.625 39.75H42.875C43.3723 39.75 43.8492 39.9475 44.2008 40.2992C44.5525 40.6508 44.75 41.1277 44.75 41.625V47.875C44.75 48.3723 44.5525 48.8492 44.2008 49.2008C43.8492 49.5525 43.3723 49.75 42.875 49.75H36.625C36.1277 49.75 35.6508 49.5525 35.2992 49.2008C34.9475 48.8492 34.75 48.3723 34.75 47.875V41.625ZM54.125 38.5C53.6277 38.5 53.1508 38.6975 52.7992 39.0492C52.4475 39.4008 52.25 39.8777 52.25 40.375C52.25 40.8723 52.4475 41.3492 52.7992 41.7008C53.1508 42.0525 53.6277 42.25 54.125 42.25H79.125C79.6223 42.25 80.0992 42.0525 80.4508 41.7008C80.8025 41.3492 81 40.8723 81 40.375C81 39.8777 80.8025 39.4008 80.4508 39.0492C80.0992 38.6975 79.6223 38.5 79.125 38.5H54.125ZM54.125 46C53.6277 46 53.1508 46.1975 52.7992 46.5492C52.4475 46.9008 52.25 47.3777 52.25 47.875C52.25 48.3723 52.4475 48.8492 52.7992 49.2008C53.1508 49.5525 53.6277 49.75 54.125 49.75H71.625C72.1223 49.75 72.5992 49.5525 72.9508 49.2008C73.3025 48.8492 73.5 48.3723 73.5 47.875C73.5 47.3777 73.3025 46.9008 72.9508 46.5492C72.5992 46.1975 72.1223 46 71.625 46H54.125ZM36.625 58.5C35.1332 58.5 33.7024 59.0926 32.6475 60.1475C31.5926 61.2024 31 62.6332 31 64.125V70.375C31 71.1137 31.1455 71.8451 31.4282 72.5276C31.7109 73.2101 32.1252 73.8301 32.6475 74.3525C33.1699 74.8748 33.7899 75.2891 34.4724 75.5718C35.1549 75.8545 35.8863 76 36.625 76H42.875C43.6137 76 44.3451 75.8545 45.0276 75.5718C45.7101 75.2891 46.3301 74.8748 46.8525 74.3525C47.3748 73.8301 47.7891 73.2101 48.0718 72.5276C48.3545 71.8451 48.5 71.1137 48.5 70.375V64.125C48.5 62.6332 47.9074 61.2024 46.8525 60.1475C45.7976 59.0926 44.3668 58.5 42.875 58.5H36.625ZM34.75 64.125C34.75 63.6277 34.9475 63.1508 35.2992 62.7992C35.6508 62.4475 36.1277 62.25 36.625 62.25H42.875C43.3723 62.25 43.8492 62.4475 44.2008 62.7992C44.5525 63.1508 44.75 63.6277 44.75 64.125V70.375C44.75 70.8723 44.5525 71.3492 44.2008 71.7008C43.8492 72.0525 43.3723 72.25 42.875 72.25H36.625C36.1277 72.25 35.6508 72.0525 35.2992 71.7008C34.9475 71.3492 34.75 70.8723 34.75 70.375V64.125ZM54.125 61C53.6277 61 53.1508 61.1975 52.7992 61.5492C52.4475 61.9008 52.25 62.3777 52.25 62.875C52.25 63.3723 52.4475 63.8492 52.7992 64.2008C53.1508 64.5525 53.6277 64.75 54.125 64.75H79.125C79.6223 64.75 80.0992 64.5525 80.4508 64.2008C80.8025 63.8492 81 63.3723 81 62.875C81 62.3777 80.8025 61.9008 80.4508 61.5492C80.0992 61.1975 79.6223 61 79.125 61H54.125ZM54.125 68.5C53.6277 68.5 53.1508 68.6975 52.7992 69.0492C52.4475 69.4008 52.25 69.8777 52.25 70.375C52.25 70.8723 52.4475 71.3492 52.7992 71.7008C53.1508 72.0525 53.6277 72.25 54.125 72.25H71.625C72.1223 72.25 72.5992 72.0525 72.9508 71.7008C73.3025 71.3492 73.5 70.8723 73.5 70.375C73.5 69.8777 73.3025 69.4008 72.9508 69.0492C72.5992 68.6975 72.1223 68.5 71.625 68.5H54.125Z" fill="#fff"/>
</svg>
