<svg width="112" height="112" viewBox="0 0 112 112" fill="#badc54" xmlns="http://www.w3.org/2000/svg">
<circle cx="56" cy="56" r="55" fill="#badc54" stroke="#fff" stroke-width="2"/>
<path d="M73.2353 69.4852L59.979 82.7452C59.4567 83.2679 58.8364 83.6826 58.1537 83.9655C57.471 84.2484 56.7393 84.394 56.0003 84.394C55.2613 84.394 54.5296 84.2484 53.8469 83.9655C53.1642 83.6826 52.5439 83.2679 52.0215 82.7452L38.7653 69.4852C36.5017 67.2219 34.7061 64.5349 33.481 61.5776C32.2558 58.6203 31.6252 55.4507 31.625 52.2497C31.6248 49.0487 32.2551 45.879 33.48 42.9215C34.7048 39.9641 36.5001 37.2769 38.7634 35.0133C41.0268 32.7498 43.7138 30.9541 46.6711 29.729C49.6283 28.5039 52.798 27.8732 55.999 27.873C59.2 27.8729 62.3697 28.5032 65.3271 29.728C68.2845 30.9528 70.9717 32.7481 73.2353 35.0115C75.4991 37.2749 77.2948 39.9622 78.52 42.9197C79.7451 45.8772 80.3757 49.0471 80.3757 52.2483C80.3757 55.4496 79.7451 58.6195 78.52 61.577C77.2948 64.5345 75.4991 67.2217 73.2353 69.4852ZM69.2603 38.9902C67.519 37.2489 65.4517 35.8676 63.1766 34.9252C60.9014 33.9828 58.4629 33.4977 56.0003 33.4977C53.5377 33.4977 51.0992 33.9828 48.824 34.9252C46.5489 35.8676 44.4816 37.2489 42.7403 38.9902C40.999 40.7315 39.6177 42.7988 38.6753 45.074C37.7329 47.3491 37.2478 49.7876 37.2478 52.2502C37.2478 54.7128 37.7329 57.1513 38.6753 59.4265C39.6177 61.7016 40.999 63.7689 42.7403 65.5102L56.0003 78.7627L69.2603 65.5102C71.0019 63.7691 72.3835 61.7019 73.3261 59.4267C74.2687 57.1515 74.7538 54.7129 74.7538 52.2502C74.7538 49.7875 74.2687 47.3489 73.3261 45.0738C72.3835 42.7986 71.0019 40.7314 69.2603 38.9902ZM56.0003 59.7502C55.0015 59.7728 54.0083 59.5956 53.079 59.2291C52.1496 58.8625 51.3028 58.314 50.5884 57.6157C49.874 56.9174 49.3062 56.0834 48.9185 55.1627C48.5308 54.2419 48.331 53.253 48.3307 52.254C48.3305 51.255 48.5298 50.266 48.9171 49.3451C49.3043 48.4241 49.8716 47.5898 50.5857 46.8912C51.2998 46.1925 52.1463 45.6436 53.0755 45.2766C54.0046 44.9096 54.9978 44.7319 55.9965 44.754C57.9562 44.7973 59.8209 45.6061 61.1917 47.0071C62.5624 48.4082 63.3302 50.2902 63.3307 52.2503C63.3312 54.2103 62.5644 56.0927 61.1943 57.4945C59.8243 58.8962 57.9599 59.7059 56.0003 59.7502Z" fill="#fff"/>
</svg>
