<svg width="1266" height="1043" viewBox="0 0 1266 1043" fill="none" xmlns="http://www.w3.org/2000/svg">
<path d="M-626.908 668.284C-635.82 959.824 78.8102 1523.39 423 1404.05C423.012 1404.05 423.019 1404.05 445.855 1389.24C457.416 1381.74 488.541 1353.89 497.274 1343.23C514.526 1322.18 520.931 1308.75 533.74 1281.88C849.994 618.499 1240.23 970.878 1249.51 667.394C1259.13 352.435 642.325 136.264 196.949 122.65C-248.427 109.036 -617.281 353.325 -626.908 668.284Z" fill="#A7D325" fill-opacity="0.3"/>
<path d="M-821.908 570.284C-830.82 861.824 -116.19 1425.39 228 1306.05C228.012 1306.05 228.019 1306.05 250.855 1291.24C262.416 1283.74 293.541 1255.89 302.274 1245.23C319.526 1224.18 325.931 1210.75 338.74 1183.88C654.994 520.499 1045.23 872.878 1054.51 569.394C1064.13 254.435 447.325 38.2643 1.94879 24.6503C-443.427 11.0363 -812.281 255.325 -821.908 570.284Z" fill="#A7D325" fill-opacity="0.3"/>
</svg>
