<svg width="24" height="24" viewBox="0 0 24 24" fill="none" xmlns="http://www.w3.org/2000/svg">
<path d="M24 11.9982C23.9997 9.70501 23.3422 7.45994 22.1056 5.52878C20.869 3.59761 19.1049 2.06122 17.0222 1.10149C14.9395 0.141757 12.6254 -0.201121 10.3539 0.113444C8.08241 0.42801 5.9486 1.38685 4.2051 2.87644C2.4616 4.36604 1.18142 6.32401 0.516119 8.51856C-0.149181 10.7131 -0.171741 13.0523 0.45111 15.2593C1.07396 17.4663 2.31614 19.4486 4.03058 20.9715C5.74503 22.4945 7.85995 23.4943 10.125 23.8526V15.4675H7.07872V11.9982H10.125V9.35476C10.125 6.34792 11.9168 4.68578 14.6577 4.68578C15.5576 4.69838 16.4553 4.77685 17.3438 4.92057V7.87596H15.8305C14.3402 7.87596 13.875 8.80089 13.875 9.75045V12.0009H17.2031L16.6712 15.4702H13.875V23.8553C16.698 23.4081 19.2688 21.9681 21.1248 19.7946C22.9809 17.621 24.0004 14.8564 24 11.9982Z" fill="url(#paint0_linear_265_25176)"/>
<defs>
<linearGradient id="paint0_linear_265_25176" x1="3.504" y1="3.50674" x2="20.3927" y2="20.5938" gradientUnits="userSpaceOnUse">
<stop stop-color="#4676ED"/>
<stop offset="0.185" stop-color="#436DE4"/>
<stop offset="0.487" stop-color="#3B54CD"/>
<stop offset="0.865" stop-color="#2F2DA8"/>
<stop offset="1" stop-color="#2B1E99"/>
</linearGradient>
</defs>
</svg>
