<svg width="24" height="24" viewBox="0 0 24 24" fill="none" xmlns="http://www.w3.org/2000/svg">
<path d="M12 24C18.6274 24 24 18.6274 24 12C24 5.37258 18.6274 0 12 0C5.37258 0 0 5.37258 0 12C0 18.6274 5.37258 24 12 24Z" fill="url(#paint0_linear_265_25180)"/>
<path d="M15.7271 7.45898C15.564 7.45898 15.4045 7.50736 15.2689 7.59798C15.1333 7.68861 15.0276 7.81742 14.9651 7.96813C14.9027 8.11884 14.8864 8.28467 14.9182 8.44466C14.95 8.60466 15.0286 8.75161 15.1439 8.86696C15.2593 8.98231 15.4062 9.06086 15.5662 9.09269C15.7262 9.12451 15.892 9.10817 16.0427 9.04575C16.1935 8.98332 16.3223 8.87761 16.4129 8.74198C16.5035 8.60635 16.5519 8.44688 16.5519 8.28376C16.5519 8.06501 16.465 7.85523 16.3103 7.70056C16.1556 7.54588 15.9459 7.45898 15.7271 7.45898Z" fill="white"/>
<path d="M12.0587 8.51758C11.3734 8.51758 10.7035 8.72079 10.1337 9.10152C9.56387 9.48225 9.11975 10.0234 8.8575 10.6565C8.59525 11.2897 8.52663 11.9863 8.66033 12.6585C8.79402 13.3306 9.12403 13.948 9.60861 14.4326C10.0932 14.9172 10.7106 15.2472 11.3827 15.3809C12.0548 15.5146 12.7515 15.4459 13.3846 15.1837C14.0178 14.9214 14.5589 14.4773 14.9397 13.9075C15.3204 13.3377 15.5236 12.6678 15.5236 11.9825C15.5226 11.0639 15.1572 10.1831 14.5076 9.53355C13.8581 8.88397 12.9773 8.51859 12.0587 8.51758ZM12.0587 14.2018C11.6196 14.2018 11.1904 14.0716 10.8254 13.8276C10.4603 13.5837 10.1758 13.237 10.0078 12.8313C9.83977 12.4257 9.79585 11.9793 9.88154 11.5487C9.96724 11.1181 10.1787 10.7225 10.4892 10.4121C10.7997 10.1017 11.1953 9.89031 11.6259 9.80472C12.0566 9.71912 12.5029 9.76316 12.9086 9.93126C13.3142 10.0994 13.6608 10.384 13.9047 10.7491C14.1485 11.1142 14.2786 11.5434 14.2785 11.9825C14.2779 12.571 14.0439 13.1352 13.6277 13.5513C13.2115 13.9674 12.6472 14.2014 12.0587 14.2018Z" fill="white"/>
<path d="M14.8085 19.0166H9.19161C8.0711 19.0156 6.99676 18.5701 6.20434 17.7779C5.41192 16.9856 4.96615 15.9114 4.96484 14.7909V9.17293C4.96629 8.05247 5.41211 6.97833 6.2045 6.18615C6.99689 5.39396 8.07114 4.94842 9.19161 4.94727H14.8085C15.9289 4.94857 17.0031 5.39415 17.7954 6.1863C18.5878 6.97846 19.0337 8.05251 19.0353 9.17293V14.7909C19.0338 15.9114 18.588 16.9855 17.7956 17.7777C17.0032 18.5699 15.929 19.0154 14.8085 19.0166ZM9.19161 6.27117C8.42266 6.27233 7.68553 6.57831 7.1418 7.12204C6.59807 7.66577 6.2921 8.40289 6.29094 9.17184V14.7909C6.29239 15.5598 6.59846 16.2967 7.14213 16.8404C7.68579 17.3841 8.42275 17.6901 9.19161 17.6916H14.8085C15.5773 17.69 16.3142 17.3839 16.8578 16.8402C17.4015 16.2966 17.7076 15.5597 17.7092 14.7909V9.17293C17.7079 8.40403 17.4018 7.66699 16.8581 7.12329C16.3144 6.57959 15.5774 6.27357 14.8085 6.27227L9.19161 6.27117Z" fill="white"/>
<defs>
<linearGradient id="paint0_linear_265_25180" x1="20.496" y1="3.504" x2="3.504" y2="20.496" gradientUnits="userSpaceOnUse">
<stop offset="0.001" stop-color="#FBE18A"/>
<stop offset="0.209" stop-color="#FCBB45"/>
<stop offset="0.376" stop-color="#F75274"/>
<stop offset="0.524" stop-color="#D53692"/>
<stop offset="0.739" stop-color="#8F39CE"/>
<stop offset="1" stop-color="#5B4FE9"/>
</linearGradient>
</defs>
</svg>
