<svg width="24" height="24" viewBox="0 0 24 24" fill="none" xmlns="http://www.w3.org/2000/svg">
<path d="M12 24C18.6274 24 24 18.6274 24 12C24 5.37258 18.6274 0 12 0C5.37258 0 0 5.37258 0 12C0 18.6274 5.37258 24 12 24Z" fill="url(#paint0_linear_265_25189)"/>
<path d="M6.96624 9.76426H9.2906V17.2305H6.96624V9.76426ZM8.12815 6.05469C8.39434 6.05491 8.6545 6.13406 8.8757 6.28215C9.09691 6.43023 9.26923 6.64059 9.37088 6.88661C9.47252 7.13264 9.49892 7.40328 9.44674 7.66431C9.39455 7.92535 9.26613 8.16504 9.07771 8.35308C8.88929 8.54112 8.64933 8.66905 8.38819 8.72071C8.12705 8.77236 7.85647 8.74541 7.61065 8.64327C7.36483 8.54112 7.15482 8.36837 7.00718 8.14686C6.85955 7.92536 6.78093 7.66504 6.78125 7.39884C6.78139 7.22214 6.81635 7.04719 6.88412 6.884C6.9519 6.72081 7.05116 6.57256 7.17623 6.44773C7.30131 6.32291 7.44976 6.22395 7.61309 6.15651C7.77642 6.08907 7.95144 6.05447 8.12815 6.05469Z" fill="white"/>
<path d="M10.7461 9.7641H12.9719V10.7859H13.002C13.2253 10.4052 13.5476 10.0922 13.9347 9.88018C14.3217 9.66815 14.759 9.56505 15.2 9.58185C17.5495 9.58185 17.983 11.1274 17.983 13.1393V17.2336H15.6646V13.6045C15.6646 12.7376 15.6477 11.6243 14.4606 11.6243C13.2533 11.6243 13.0688 12.5673 13.0688 13.5399V17.233H10.7461V9.7641Z" fill="white"/>
<defs>
<linearGradient id="paint0_linear_265_25189" x1="20.496" y1="3.504" x2="3.504" y2="20.496" gradientUnits="userSpaceOnUse">
<stop stop-color="#007AB5"/>
<stop offset="1" stop-color="#0046E5"/>
</linearGradient>
</defs>
</svg>
