<svg width="24" height="24" viewBox="0 0 24 24" fill="none" xmlns="http://www.w3.org/2000/svg">
<path d="M12 24C18.6274 24 24 18.6274 24 12C24 5.37258 18.6274 0 12 0C5.37258 0 0 5.37258 0 12C0 18.6274 5.37258 24 12 24Z" fill="url(#paint0_linear_265_25186)"/>
<path d="M18.6262 7.88866C18.2027 8.07024 17.7578 8.19714 17.3023 8.2663C17.5146 8.23127 17.8277 7.84542 17.953 7.68945C18.1482 7.45237 18.2968 7.18051 18.3909 6.8882C18.4024 6.86522 18.4106 6.83676 18.3909 6.81924C18.3795 6.81432 18.3672 6.81224 18.3549 6.81319C18.3426 6.81415 18.3307 6.8181 18.3203 6.82472C17.8243 7.08989 17.2972 7.29213 16.7512 7.42674C16.7321 7.433 16.7117 7.43364 16.6923 7.4286C16.6728 7.42355 16.6553 7.41302 16.6417 7.39828C16.5996 7.34824 16.5539 7.30141 16.5049 7.25818C16.2782 7.06318 16.0215 6.90609 15.7447 6.79298C15.375 6.64341 14.9763 6.57924 14.5784 6.60525C14.192 6.63118 13.8152 6.73762 13.4723 6.91776C13.1284 7.0974 12.8248 7.34548 12.5802 7.64675C12.3265 7.95886 12.1447 8.32306 12.0477 8.71344C11.9644 9.08357 11.9548 9.46646 12.0192 9.84032C12.028 9.90326 12.0225 9.91146 11.9645 9.90325C9.88823 9.69137 7.96561 8.7127 6.57256 7.15857C6.51017 7.08633 6.4757 7.08633 6.42425 7.1635C6.14501 7.68046 6.03958 8.27358 6.12356 8.8551C6.20754 9.43663 6.47645 9.97569 6.89054 10.3925C6.99617 10.4927 7.10453 10.5928 7.2222 10.6837C6.85973 10.6564 6.50629 10.5574 6.18234 10.3925C6.11941 10.3526 6.08821 10.3756 6.08219 10.4473C6.078 10.5505 6.08387 10.6539 6.0997 10.7559C6.16312 11.2413 6.35426 11.7012 6.6536 12.0885C6.95293 12.4758 7.34972 12.7767 7.80343 12.9604C7.91419 13.0086 8.03005 13.044 8.14878 13.0661C7.81284 13.1332 7.46804 13.1438 7.12862 13.0973C7.05419 13.0836 7.02628 13.1203 7.05419 13.1914C7.22884 13.6487 7.51754 14.0538 7.89285 14.3681C8.26816 14.6824 8.71762 14.8954 9.19849 14.9871C9.29536 15.004 9.39278 15.004 9.49074 15.027C9.48418 15.0352 9.47871 15.0352 9.47323 15.044C9.23188 15.4107 8.39725 15.6843 8.00812 15.8195C7.29593 16.0737 6.53716 16.1708 5.78391 16.1041C5.66515 16.0871 5.63943 16.0877 5.60768 16.1041C5.57594 16.1205 5.6033 16.1534 5.64107 16.1835C5.79267 16.2836 5.947 16.3723 6.10463 16.4571C6.577 16.7089 7.07543 16.9084 7.59108 17.052C8.91769 17.4509 10.3257 17.4949 11.6746 17.1795C13.0236 16.8641 14.2661 16.2004 15.2784 15.2547C16.8535 13.6889 17.4057 11.5304 17.4057 9.36964C17.4057 9.28536 17.5059 9.23829 17.565 9.19396C17.9646 8.88387 18.3171 8.51737 18.6114 8.10594C18.6573 8.0462 18.6816 7.97271 18.6804 7.89742V7.88866C18.6809 7.85418 18.6809 7.86458 18.6262 7.88866Z" fill="white"/>
<defs>
<linearGradient id="paint0_linear_265_25186" x1="20.496" y1="3.504" x2="3.504" y2="20.496" gradientUnits="userSpaceOnUse">
<stop stop-color="#33CCFF"/>
<stop offset="1" stop-color="#337FFF"/>
</linearGradient>
</defs>
</svg>
